<svg width="304" height="291" viewBox="0 0 304 291" fill="none" xmlns="http://www.w3.org/2000/svg">
<mask id="mask0_943_1266" style="mask-type:alpha" maskUnits="userSpaceOnUse" x="0" y="0" width="304" height="291">
<rect width="303.681" height="291" rx="15" fill="white"/>
</mask>
<g mask="url(#mask0_943_1266)">
<ellipse cx="180.206" cy="288.663" rx="169.528" ry="15.6846" fill="#CBCCFE"/>
<path d="M304.046 281.907H140.945V241.083L304.046 241.083C305.794 241.083 307.211 242.498 307.211 244.243V278.748C307.211 280.493 305.794 281.907 304.046 281.907Z" fill="#407BFF"/>
<path opacity="0.2" d="M304.046 281.907H140.945V241.083L304.046 241.083C305.794 241.083 307.211 242.498 307.211 244.243V278.748C307.211 280.493 305.794 281.907 304.046 281.907Z" fill="black"/>
<rect opacity="0.2" x="205.887" y="281.907" width="24.9538" height="40.8238" transform="rotate(180 205.887 281.907)" fill="black"/>
<rect opacity="0.2" x="229.259" y="281.907" width="12.6523" height="40.8238" transform="rotate(180 229.259 281.907)" fill="black"/>
<path d="M86.9182 241.083H140.937V281.907H86.9182C85.1612 281.907 83.7368 280.485 83.7368 278.731V244.258C83.7368 242.505 85.1612 241.083 86.9182 241.083V241.083Z" fill="#407BFF"/>
<path opacity="0.9" d="M83.7368 245.472H130.993C133.286 245.472 135.145 247.327 135.145 249.616V273.366C135.145 274.465 134.708 275.519 133.929 276.296C133.151 277.074 132.094 277.51 130.993 277.51H83.7368V245.472Z" fill="white"/>
<ellipse opacity="0.2" cx="284.354" cy="261.496" rx="11.6978" ry="11.6756" fill="black"/>
<path d="M315.858 241.051L152.708 241.051V211.422L315.858 211.422C317.606 211.422 319.023 212.837 319.023 214.581V237.924C319.006 239.656 317.594 241.051 315.858 241.051Z" fill="#263238"/>
<path opacity="0.2" d="M315.858 241.051L152.708 241.051V211.422L315.858 211.422C317.606 211.422 319.023 212.837 319.023 214.581V237.924C319.006 239.656 317.594 241.051 315.858 241.051Z" fill="black"/>
<path d="M98.7224 211.487H152.741V241.116H98.7224C96.9654 241.116 95.541 239.694 95.541 237.941V214.63C95.5589 212.889 96.9781 211.487 98.7224 211.487V211.487Z" fill="#263238"/>
<path opacity="0.9" d="M95.5166 215.844H142.83C145.123 215.844 146.982 217.699 146.982 219.988V232.567C146.987 233.669 146.551 234.728 145.772 235.508C144.993 236.289 143.934 236.728 142.83 236.728H95.5166V215.844Z" fill="white"/>
<rect opacity="0.3" x="304.43" y="234.065" width="120.959" height="15.6" rx="4.19" transform="rotate(180 304.43 234.065)" fill="#407BFF"/>
<rect opacity="0.3" x="163.265" y="241.083" width="4.33163" height="29.6286" transform="rotate(180 163.265 241.083)" fill="#407BFF"/>
<rect opacity="0.3" x="171.169" y="241.083" width="4.33163" height="29.6286" transform="rotate(180 171.169 241.083)" fill="#407BFF"/>
<path d="M297.798 211.455L134.705 211.455V180.858L297.798 180.858C299.546 180.858 300.963 182.272 300.963 184.017V208.296C300.963 210.041 299.546 211.455 297.798 211.455Z" fill="#407BFF"/>
<path opacity="0.3" d="M297.798 211.455L134.705 211.455V180.858L297.798 180.858C299.546 180.858 300.963 182.272 300.963 184.017V208.296C300.963 210.041 299.546 211.455 297.798 211.455Z" fill="black"/>
<rect opacity="0.9" x="231.322" y="211.455" width="56.6293" height="30.5649" transform="rotate(180 231.322 211.455)" fill="white"/>
<rect opacity="0.9" x="284.363" y="211.455" width="28.7144" height="30.5649" transform="rotate(180 284.363 211.455)" fill="white"/>
<path d="M80.6863 180.891H134.673V211.488H80.6863C79.8425 211.488 79.0333 211.154 78.4367 210.558C77.8401 209.963 77.5049 209.155 77.5049 208.313V184.066C77.5049 182.312 78.9293 180.891 80.6863 180.891V180.891Z" fill="#407BFF"/>
<path opacity="0.9" d="M77.5049 185.271H124.761C127.054 185.271 128.913 187.126 128.913 189.415V202.922C128.913 205.211 127.054 207.067 124.761 207.067H77.5049V185.271Z" fill="white"/>
<path d="M309.594 180.891L146.501 180.891V160.617L309.594 160.617C311.342 160.617 312.759 162.032 312.759 163.776V177.732C312.759 179.476 311.342 180.891 309.594 180.891Z" fill="#407BFF"/>
<path opacity="0.3" d="M309.594 180.891L146.501 180.891V160.617L309.594 160.617C311.342 160.617 312.759 162.032 312.759 163.776V177.732C312.759 179.476 311.342 180.891 309.594 180.891Z" fill="white"/>
<path opacity="0.2" d="M309.594 180.891L146.501 180.891V160.617L309.594 160.617C311.342 160.617 312.759 162.032 312.759 163.776V177.732C312.759 179.476 311.342 180.891 309.594 180.891Z" fill="black"/>
<path d="M92.4822 160.617H146.501V180.891H92.4822C90.7252 180.891 89.3008 179.469 89.3008 177.715V163.793C89.3008 162.039 90.7252 160.617 92.4822 160.617Z" fill="#407BFF"/>
<path opacity="0.3" d="M92.4822 160.617H146.501V180.891H92.4822C90.7252 180.891 89.3008 179.469 89.3008 177.715V163.793C89.3008 162.039 90.7252 160.617 92.4822 160.617Z" fill="white"/>
<path opacity="0.9" d="M89.3008 165.006H136.549C138.842 165.006 140.701 166.861 140.701 169.15V172.407C140.661 174.667 138.814 176.478 136.549 176.478H89.3008V165.006Z" fill="white"/>
<rect opacity="0.4" x="235.018" y="175.548" width="73.9232" height="9.58309" transform="rotate(180 235.018 175.548)" fill="#263238"/>
<path d="M174.563 153.908H197.885V160.625H174.563C174.274 160.625 174.041 160.392 174.041 160.104V154.405C174.054 154.127 174.284 153.908 174.563 153.908Z" fill="#407BFF"/>
<path opacity="0.2" d="M174.563 153.908H197.885V160.625H174.563C174.274 160.625 174.041 160.392 174.041 160.104V154.405C174.054 154.127 174.284 153.908 174.563 153.908Z" fill="black"/>
<path d="M206.777 160.634H197.918V153.917H206.809C207.098 153.917 207.332 154.15 207.332 154.438V160.137C207.325 160.277 207.263 160.408 207.159 160.502C207.054 160.595 206.917 160.643 206.777 160.634Z" fill="#407BFF"/>
<path opacity="0.9" d="M207.307 159.909H199.533C199.154 159.909 198.847 159.603 198.847 159.225V155.317C198.847 154.939 199.154 154.633 199.533 154.633H207.307V159.909V159.909Z" fill="white"/>
<path d="M172.621 149.031H195.944V153.916H172.621C172.333 153.916 172.099 153.683 172.099 153.395V149.56C172.097 149.421 172.151 149.286 172.249 149.187C172.347 149.087 172.481 149.031 172.621 149.031Z" fill="#263238"/>
<path opacity="0.2" d="M172.621 149.031H195.944V153.916H172.621C172.333 153.916 172.099 153.683 172.099 153.395V149.56C172.097 149.421 172.151 149.286 172.249 149.187C172.347 149.087 172.481 149.031 172.621 149.031Z" fill="black"/>
<path d="M204.835 153.916H195.944V149.031H204.835C205.124 149.031 205.357 149.264 205.357 149.552V153.387C205.36 153.526 205.306 153.661 205.207 153.761C205.109 153.86 204.975 153.916 204.835 153.916V153.916Z" fill="#263238"/>
<path opacity="0.9" d="M205.365 153.191H197.591C197.409 153.191 197.235 153.119 197.107 152.991C196.978 152.863 196.906 152.689 196.906 152.507V150.439C196.906 150.062 197.213 149.755 197.591 149.755H205.365V153.191L205.365 153.191Z" fill="white"/>
<path d="M175.59 144.008H198.913V149.04H175.59C175.302 149.04 175.068 148.806 175.068 148.518V144.529C175.068 144.391 175.123 144.258 175.221 144.16C175.319 144.063 175.452 144.008 175.59 144.008Z" fill="#407BFF"/>
<path opacity="0.3" d="M175.59 144.008H198.913V149.04H175.59C175.302 149.04 175.068 148.806 175.068 148.518V144.529C175.068 144.391 175.123 144.258 175.221 144.16C175.319 144.063 175.452 144.008 175.59 144.008Z" fill="black"/>
<path d="M207.805 149.031H198.913V144H207.805C208.093 144 208.327 144.233 208.327 144.521V148.502C208.329 148.642 208.275 148.776 208.177 148.876C208.078 148.975 207.944 149.031 207.805 149.031Z" fill="#407BFF"/>
<path opacity="0.9" d="M208.326 148.313H200.552C200.174 148.313 199.867 148.007 199.867 147.63V145.407C199.867 145.029 200.174 144.723 200.552 144.723H208.326V148.313Z" fill="white"/>
<path d="M173.649 140.652H196.971V143.991H173.649C173.361 143.991 173.127 143.757 173.127 143.469V141.173C173.127 140.886 173.361 140.652 173.649 140.652Z" fill="#407BFF"/>
<path opacity="0.3" d="M173.649 140.652H196.971V143.991H173.649C173.361 143.991 173.127 143.757 173.127 143.469V141.173C173.127 140.886 173.361 140.652 173.649 140.652Z" fill="white"/>
<path opacity="0.2" d="M173.649 140.652H196.971V143.991H173.649C173.361 143.991 173.127 143.757 173.127 143.469V141.173C173.127 140.886 173.361 140.652 173.649 140.652Z" fill="black"/>
<path d="M205.871 144.023H196.979V140.685H205.871C206.159 140.685 206.393 140.919 206.393 141.206V143.494C206.395 143.634 206.341 143.768 206.243 143.868C206.145 143.967 206.011 144.023 205.871 144.023Z" fill="#407BFF"/>
<path opacity="0.3" d="M205.871 144.023H196.979V140.685H205.871C206.159 140.685 206.393 140.919 206.393 141.206V143.494C206.395 143.634 206.341 143.768 206.243 143.868C206.145 143.967 206.011 144.023 205.871 144.023Z" fill="white"/>
<path opacity="0.9" d="M206.385 143.282H198.611C198.233 143.282 197.926 142.976 197.926 142.598V142.069C197.926 141.691 198.233 141.385 198.611 141.385H206.385V143.274V143.282Z" fill="white"/>
<path d="M172.621 135.768H195.944V140.653H172.621C172.333 140.653 172.099 140.419 172.099 140.132V136.297C172.097 136.157 172.151 136.023 172.249 135.923C172.347 135.824 172.481 135.768 172.621 135.768Z" fill="#263238"/>
<path opacity="0.2" d="M172.621 135.768H195.944V140.653H172.621C172.333 140.653 172.099 140.419 172.099 140.132V136.297C172.097 136.157 172.151 136.023 172.249 135.923C172.347 135.824 172.481 135.768 172.621 135.768Z" fill="black"/>
<path d="M201.874 140.693H195.968V135.808H201.899C202.187 135.808 202.421 136.041 202.421 136.329V140.164C202.423 140.308 202.366 140.446 202.262 140.546C202.159 140.647 202.018 140.7 201.874 140.693V140.693Z" fill="#263238"/>
<path opacity="0.9" d="M202.404 139.944H197.591C197.213 139.944 196.906 139.638 196.906 139.26V137.192C196.906 136.815 197.213 136.508 197.591 136.508H202.404V139.944H202.404Z" fill="white"/>
<path d="M175.59 130.76H198.913V135.767H175.59C175.302 135.767 175.068 135.534 175.068 135.246V131.256C175.081 130.978 175.311 130.759 175.59 130.76Z" fill="#407BFF"/>
<path opacity="0.3" d="M175.59 130.76H198.913V135.767H175.59C175.302 135.767 175.068 135.534 175.068 135.246V131.256C175.081 130.978 175.311 130.759 175.59 130.76Z" fill="black"/>
<path d="M204.843 135.791H198.913V130.784H204.843C205.131 130.784 205.365 131.017 205.365 131.305V135.286C205.356 135.568 205.125 135.791 204.843 135.791Z" fill="#407BFF"/>
<path opacity="0.9" d="M205.365 135.067H200.552C200.174 135.067 199.867 134.761 199.867 134.383V132.161C199.867 131.783 200.174 131.477 200.552 131.477H205.365V135.067H205.365Z" fill="white"/>
<path d="M173.649 127.43H196.971V130.768H173.649C173.361 130.768 173.127 130.535 173.127 130.247V127.951C173.127 127.663 173.361 127.43 173.649 127.43Z" fill="#407BFF"/>
<path opacity="0.3" d="M173.649 127.43H196.971V130.768H173.649C173.361 130.768 173.127 130.535 173.127 130.247V127.951C173.127 127.663 173.361 127.43 173.649 127.43Z" fill="white"/>
<path opacity="0.2" d="M173.649 127.43H196.971V130.768H173.649C173.361 130.768 173.127 130.535 173.127 130.247V127.951C173.127 127.663 173.361 127.43 173.649 127.43Z" fill="black"/>
<path d="M202.91 130.76H196.98V127.422H202.91C203.198 127.422 203.432 127.655 203.432 127.943V130.239C203.432 130.526 203.198 130.76 202.91 130.76Z" fill="#407BFF"/>
<path opacity="0.3" d="M202.91 130.76H196.98V127.422H202.91C203.198 127.422 203.432 127.655 203.432 127.943V130.239C203.432 130.526 203.198 130.76 202.91 130.76Z" fill="white"/>
<path opacity="0.9" d="M203.424 130.043H198.611C198.232 130.043 197.926 129.737 197.926 129.359V128.83C197.926 128.452 198.232 128.146 198.611 128.146H203.424V130.035L203.424 130.043Z" fill="white"/>
<path d="M76.2723 216.247L70.7476 213.445L75.2343 199.562L80.759 202.364L76.2723 216.247V216.247Z" fill="#FFC3BD"/>
<path d="M72.2853 210.95L79.0523 212.328C79.2925 212.37 79.4553 212.589 79.4199 212.823L78.5845 218.085C78.4591 218.65 77.8892 219.011 77.3063 218.896C74.9587 218.377 73.8559 218.012 70.8818 217.404C69.0522 217.031 62.728 215.782 60.2885 214.972C57.8491 214.161 58.743 211.834 59.8541 211.972C64.8667 212.572 69.1525 212.028 71.1324 211.08C71.4904 210.911 71.897 210.865 72.2853 210.95Z" fill="#263238"/>
<path opacity="0.2" d="M80.7597 202.379L75.2932 199.562L72.7505 207.572L78.4737 209.573L80.7597 202.379V202.379Z" fill="black"/>
<path d="M136.127 133.486C136.127 133.486 89.2532 138.033 85.3354 155.134C79.6946 179.702 72.0825 203.051 72.0825 203.051L82.5688 204.901C84.1757 197.907 96.1282 173.372 101.736 156.835C114.434 154.935 148.378 162.154 153.463 152.479C155.986 147.566 157.37 142.146 157.514 136.623L136.127 133.486Z" fill="#407BFF"/>
<path opacity="0.3" d="M136.127 133.486C136.127 133.486 89.2532 138.033 85.3354 155.134C79.6946 179.702 72.0825 203.051 72.0825 203.051L82.5688 204.901C84.1757 197.907 96.1282 173.372 101.736 156.835C114.434 154.935 148.378 162.154 153.463 152.479C155.986 147.566 157.37 142.146 157.514 136.623L136.127 133.486Z" fill="black"/>
<path d="M83.6106 208.906L71.4155 204.477L72.0006 199.562L84.7642 202.932L83.6106 208.906V208.906Z" fill="#407BFF"/>
<path fill-rule="evenodd" clip-rule="evenodd" d="M71.2786 211.567C70.7772 211.596 70.2748 211.552 69.7816 211.438C69.4267 211.39 69.0976 211.188 68.8534 210.867C68.7097 210.586 68.7097 210.228 68.8534 209.947C68.9193 209.754 69.0602 209.615 69.2277 209.579C69.9013 209.468 71.2487 211.116 71.3984 211.309C71.421 211.361 71.421 211.423 71.3984 211.475C71.3758 211.531 71.3294 211.566 71.2786 211.567ZM69.0402 210.646C69.2423 211.024 69.9459 211.254 70.9489 211.254C70.41 210.6 69.6091 209.809 69.2124 209.892C69.1313 209.908 69.0646 209.979 69.0402 210.076C68.9541 210.251 68.9541 210.471 69.0402 210.646Z" fill="#407BFF"/>
<path fill-rule="evenodd" clip-rule="evenodd" d="M71.7832 211.576H71.7218L71.6144 211.53C71.1387 211.089 70.5556 209.774 70.8088 209.204C70.8989 208.992 71.1259 208.872 71.3536 208.915C71.5616 208.924 71.7526 209.032 71.8676 209.204C72.287 209.778 71.9785 211.027 71.8896 211.388C71.8761 211.442 71.8676 211.477 71.8676 211.485C71.8569 211.527 71.8252 211.562 71.7832 211.576ZM71.6836 209.363C71.6254 209.276 71.5341 209.216 71.4304 209.196L71.3537 209.189C71.1619 209.173 71.0698 209.249 71.0698 209.318C71.0231 209.994 71.2431 210.662 71.6836 211.181C71.8797 210.59 71.8797 209.954 71.6836 209.363Z" fill="#407BFF"/>
<path d="M141.495 90.4097C141.215 93.5338 140.769 96.4732 140.291 99.4881C139.812 102.503 139.185 105.476 138.418 108.474C137.669 111.547 136.698 114.559 135.513 117.485C134.874 119.083 134.098 120.62 133.194 122.079C132.683 122.911 132.101 123.695 131.453 124.422C130.674 125.315 129.764 126.08 128.755 126.69L128.408 126.891L128.218 126.958C126.427 127.583 124.493 127.647 122.665 127.143C121.308 126.789 120 126.264 118.77 125.581C117.659 124.963 116.594 124.261 115.585 123.481C115.09 123.104 114.628 122.692 114.166 122.281C113.687 121.869 113.23 121.431 112.796 120.97L115.387 117.149C116.352 117.468 117.392 117.88 118.391 118.182C119.389 118.485 120.379 118.812 121.328 119.022C122.177 119.238 123.045 119.362 123.919 119.392C124.654 119.392 125.174 119.19 125.041 119.131L124.505 119.4C125.061 118.863 125.522 118.232 125.867 117.536C126.441 116.455 126.935 115.332 127.344 114.176C128.233 111.592 128.969 108.956 129.547 106.282C130.149 103.536 130.669 100.739 131.123 97.884C131.577 95.0287 131.948 92.1733 132.328 89.4355L141.495 90.4097Z" fill="#FFC3BD"/>
<path d="M133.66 85.8278C127.828 90.9005 128.15 103.244 128.15 103.244L143.56 108.791C146.823 103.718 148.425 94.0288 148.137 89.8691C147.688 83.4774 140.576 79.7911 133.66 85.8278Z" fill="#263238"/>
<path opacity="0.2" d="M148.15 90.1385C145.409 88.8134 141.663 89.2354 137.958 92.4933C134.605 95.4389 133.306 100.866 132.819 104.875L143.616 108.791C146.784 103.811 148.368 94.4007 148.15 90.1385Z" fill="black"/>
<path d="M55.2415 200.896L53.3945 195.076L66.2394 188.215L68.078 194.035L55.2415 200.896V200.896Z" fill="#FFC3BD"/>
<path d="M53.9371 195.127L58.6038 200.168C58.6871 200.249 58.734 200.358 58.734 200.472C58.734 200.586 58.6871 200.695 58.6038 200.775L54.7289 204.62C54.5147 204.812 54.2308 204.912 53.94 204.9C53.6492 204.888 53.3753 204.763 53.179 204.554C51.587 202.775 50.9131 201.841 48.8577 199.636C47.5942 198.275 43.155 193.774 41.4113 191.889C39.6677 190.003 41.6304 188.38 42.5401 189.028C46.6339 191.922 50.7362 194.242 52.9347 194.61C53.3173 194.673 53.6688 194.854 53.9371 195.127V195.127Z" fill="#263238"/>
<path opacity="0.2" d="M68.0778 194.203L66.2165 188.215L56.7314 193.369L60.6835 198.226L68.0778 194.203V194.203Z" fill="black"/>
<path d="M147.238 135.488C147.238 135.488 115.213 139.776 108.61 148.532C97.1118 163.778 60.7363 188.934 60.7363 188.934L64.0379 199.562C64.0379 199.562 113.612 178.677 122.427 161.213C138.621 159.968 164.968 165.295 169.12 155.252C171.885 148.565 170.531 138.58 170.531 138.58L147.238 135.488Z" fill="#407BFF"/>
<path opacity="0.2" d="M147.238 135.488C147.238 135.488 115.213 139.776 108.61 148.532C97.1118 163.778 60.7363 188.934 60.7363 188.934L64.0379 199.562C64.0379 199.562 113.612 178.677 122.427 161.213C138.621 159.968 164.968 165.295 169.12 155.252C171.885 148.565 170.531 138.58 170.531 138.58L147.238 135.488Z" fill="black"/>
<path d="M64.4826 201.564L57.3994 189.988L61.928 186.213L68.7457 198.672L64.4826 201.564V201.564Z" fill="#407BFF"/>
<path fill-rule="evenodd" clip-rule="evenodd" d="M53.1694 194.867C52.7172 194.584 52.2989 194.256 51.9215 193.891C51.6115 193.628 51.4223 193.265 51.3926 192.877C51.4252 192.62 51.5962 192.396 51.8471 192.282C52.0091 192.199 52.2058 192.199 52.3678 192.282C53.0868 192.61 53.3925 194.524 53.3925 194.738C53.4032 194.79 53.3765 194.842 53.3264 194.867C53.279 194.897 53.2169 194.897 53.1694 194.867ZM51.6817 192.953C51.6569 193.296 52.1693 193.861 53.0619 194.479V194.471C52.9214 193.708 52.6239 192.701 52.2437 192.572C52.1644 192.53 52.0668 192.53 51.9875 192.572C51.8189 192.639 51.7022 192.785 51.6817 192.953Z" fill="#407BFF"/>
<path fill-rule="evenodd" clip-rule="evenodd" d="M52.8655 194.867H52.7989C52.7778 194.844 52.7646 194.816 52.7609 194.787C52.6087 194.11 52.9891 192.62 53.6644 192.289C53.9158 192.17 54.2299 192.206 54.4348 192.378C54.6276 192.523 54.7355 192.732 54.7296 192.95C54.6916 193.78 53.0938 194.867 53.0177 194.867C52.9729 194.897 52.9102 194.897 52.8655 194.867ZM54.3967 192.95C54.4041 192.84 54.3596 192.733 54.2731 192.652L54.216 192.603C54.1182 192.509 53.9555 192.485 53.8261 192.547C53.284 193.092 53.0084 193.793 53.0557 194.504C53.5598 194.142 54.3967 193.449 54.3967 192.95Z" fill="#407BFF"/>
<path d="M116.801 118.117L112.072 113.463L108.792 120.018C108.792 120.018 114.533 123.222 115.972 121.755L116.801 118.117Z" fill="#FFC3BD"/>
<path d="M105.664 113.463L104.787 118.929L108.752 120.137L112.129 113.513L105.664 113.463V113.463Z" fill="#FFC3BD"/>
<path d="M169.784 82.6079C169.178 80.9954 168.098 79.3993 166.388 79.4241C166.036 79.4241 163.933 79.4241 163.557 79.4737C161.593 79.5233 159.138 79.6557 156.765 79.9616C152.22 80.4904 147.709 81.2828 143.255 82.335C141.209 82.8974 139.245 83.6003 137.674 84.204H137.617C135.783 84.9281 134.649 86.7968 134.843 88.7771C135.661 97.5182 137.69 121.79 136.479 134.36L170.029 138.825C172.042 132.358 172.844 117.547 172.86 105.474C172.926 98.2211 172.279 89.1989 169.784 82.6079Z" fill="#263238"/>
<path opacity="0.2" d="M173.364 98.7793L172.68 98.8288L168.295 102.542L163.757 117.833L148.17 120.499C151.957 122.372 162.972 122.752 169.484 121.06C171.674 120.473 173.218 118.56 173.296 116.34C173.456 112.519 173.532 108.641 173.532 105.001C173.532 103.029 173.49 100.925 173.364 98.7793Z" fill="black"/>
<path d="M118.135 103.584C118.135 103.584 121.191 101.821 126.923 103.531C130.114 104.588 133.556 104.486 136.684 103.24L138.826 107.418L119.354 108.124L118.135 103.584Z" fill="#407BFF"/>
<path opacity="0.8" d="M118.135 103.584C118.135 103.584 121.191 101.821 126.923 103.531C130.114 104.588 133.556 104.486 136.684 103.24L138.826 107.418L119.354 108.124L118.135 103.584Z" fill="white"/>
<path d="M118.253 103.691C118.253 103.691 118.125 102.438 114.404 102.309C106.918 102.058 103.759 100.114 103.759 100.114L103.452 102.076L119.47 108.123L118.253 103.691Z" fill="#407BFF"/>
<path opacity="0.8" d="M118.253 103.691C118.253 103.691 118.125 102.438 114.404 102.309C106.918 102.058 103.759 100.114 103.759 100.114L103.452 102.076L119.47 108.123L118.253 103.691Z" fill="white"/>
<path d="M124.81 131.484L111.18 127.604C110.835 127.495 110.565 127.222 110.46 126.876L103.486 101.653C103.407 101.415 103.468 101.153 103.646 100.976C103.823 100.799 104.086 100.737 104.324 100.816L117.309 104.521L124.81 131.484Z" fill="#407BFF"/>
<path d="M145.431 132.811L127.573 131.814L120.138 104.786L138.246 105.8C138.665 105.837 139.018 106.13 139.131 106.537L146.124 131.94C146.207 132.154 146.17 132.396 146.027 132.576C145.885 132.755 145.658 132.845 145.431 132.811V132.811Z" fill="#407BFF"/>
<path d="M124.211 131.965L127.48 132.151L120.069 104.971L116.801 104.786L124.211 131.965V131.965Z" fill="#407BFF"/>
<path opacity="0.3" d="M124.211 131.965L127.48 132.151L120.069 104.971L116.801 104.786L124.211 131.965V131.965Z" fill="black"/>
<path d="M171.588 88.1006C171.763 89.3028 171.879 90.3213 171.962 91.44C172.045 92.5588 172.103 93.594 172.153 94.6793C172.228 96.8333 172.211 98.9955 172.078 101.166C171.867 105.621 171.059 110.027 169.676 114.265C169.676 114.34 169.527 114.699 169.427 114.966C169.31 115.235 169.18 115.497 169.036 115.751C168.771 116.219 168.459 116.658 168.106 117.062C167.511 117.733 166.819 118.31 166.053 118.773C164.874 119.479 163.604 120.018 162.279 120.376C160.073 120.961 157.81 121.305 155.53 121.403C151.284 121.604 147.029 121.366 142.831 120.694L143.047 116.077C146.951 115.718 150.835 115.161 154.683 114.407C156.442 114.074 158.167 113.579 159.836 112.929C160.454 112.694 161.037 112.37 161.564 111.969C161.739 111.819 161.822 111.694 161.806 111.677C161.789 111.66 161.764 111.677 161.739 111.736C161.715 111.765 161.693 111.795 161.673 111.827C161.673 111.827 161.623 111.978 161.673 111.827C162.08 110.051 162.385 108.254 162.587 106.443C162.761 104.589 162.886 102.711 162.911 100.807C162.936 98.9037 162.911 96.9835 162.828 95.0633C162.786 94.1033 162.736 93.1432 162.662 92.1914L162.545 90.7638L162.421 89.428L171.588 88.1006Z" fill="#FFC3BD"/>
<path d="M171.813 79.9897C167.726 76.8614 162.083 76.9542 159.77 85.1922C158.256 90.5886 159.064 101.449 159.064 101.449L175.387 101.12C177.212 92.4858 175.951 83.1601 171.813 79.9897Z" fill="#263238"/>
<path d="M154.915 66.0762L151.55 70.0572L146.963 75.4843C147.25 76.1762 147.49 76.8871 147.681 77.6119C148.506 80.4875 145.907 81.0693 143.557 82.5237C143.557 82.5237 140.034 87.2195 148.506 85.8482C156.977 84.4768 158.181 80.0304 158.181 80.0304C154.379 77.4291 154.651 71.0462 154.915 66.0762Z" fill="#FFC3BD"/>
<path d="M151.448 85.4307C150.565 85.6852 149.667 85.8835 148.759 86.0243C147.588 86.241 146.396 86.3133 145.208 86.2394L145.003 87.2633C144.687 87.487 144.61 88.683 146.608 90.1027C148.716 89.6639 151.986 87.8484 151.448 85.4307Z" fill="#407BFF"/>
<path d="M157.088 78.7568C157.088 78.7568 155.427 83.03 149.385 84.5944C150.241 86.8586 148.837 89.4357 148.837 89.4357C148.837 89.4357 157.267 86.661 159.022 83.8863C160.776 81.1116 160.023 79.4896 160.023 79.4896C159.109 79.0499 158.109 78.8002 157.088 78.7568V78.7568Z" fill="#263238"/>
<path d="M145.219 89.4349C145.219 89.4349 145.274 85.858 146.272 84.6601C145.749 83.0464 146.027 82.1646 146.835 80.7588C145.131 81.1121 143.623 82.1434 142.627 83.637C141.558 85.5086 142.302 89.4848 145.219 89.4349Z" fill="#263238"/>
<path opacity="0.2" d="M147.502 75.3542C147.779 76.0266 148.01 76.7174 148.194 77.4218C150.055 76.6868 152.274 74.1427 152.171 72.0912C152.151 71.4125 152.057 70.7381 151.893 70.0801L147.502 75.3542Z" fill="black"/>
<path d="M136.099 56.3127C134.454 59.7478 135.868 67.9071 143.667 64.6587C151.466 61.4102 138.775 50.7403 136.099 56.3127Z" fill="#263238"/>
<path d="M152.444 63.4297C151.718 64.9312 152.34 68.5004 155.756 67.0847C159.171 65.6691 153.577 60.9931 152.444 63.4297Z" fill="#263238"/>
<path d="M153.528 65.8218C152.533 67.023 152.199 70.4785 155.509 70.0424C158.82 69.6064 155.136 63.839 153.528 65.8218Z" fill="#263238"/>
<path d="M154.637 56.398C156.027 62.8459 157.149 66.5315 154.896 70.7829C153.425 73.613 150.496 75.3988 147.291 75.4198C144.085 75.4407 141.132 73.6933 139.624 70.8828C136.677 65.6247 134.893 55.9654 140.353 51.506C142.707 49.4813 145.969 48.8557 148.913 49.8639C151.857 50.8721 154.038 53.3617 154.637 56.398Z" fill="#FFC3BD"/>
<path d="M153.253 49.0269C151.939 43.2536 144.27 45.2592 140.361 48.75C136.452 52.2409 135.445 54.9849 132.151 57.0492C138.232 57.8883 146.84 55.4548 148.454 53.3905C148.446 55.4651 149.423 57.4181 151.082 58.6436C150.968 60.4515 150.968 62.2649 151.082 64.0728L153.86 62.6463L157.096 61.3372C161.87 53.1975 159.05 48.171 153.253 49.0269Z" fill="#263238"/>
<path d="M146.386 61.4027C146.28 61.404 146.188 61.3252 146.172 61.2179C146.16 61.1598 146.172 61.0993 146.204 61.0502C146.237 61.0011 146.288 60.9676 146.345 60.9575L155.254 59.4035C155.374 59.3832 155.488 59.4656 155.509 59.5883C155.518 59.6463 155.504 59.7057 155.47 59.7532C155.436 59.8006 155.385 59.832 155.328 59.8403L146.419 61.3943L146.386 61.4027Z" fill="white"/>
<path fill-rule="evenodd" clip-rule="evenodd" d="M141.046 62.7918C141.648 64.9578 143.512 66.742 145.206 66.742C145.875 66.7577 146.508 66.4505 146.901 65.9204C147.531 64.9574 147.675 63.7642 147.291 62.6839C146.689 60.518 144.817 58.7338 143.122 58.7338C142.453 58.7214 141.819 59.0315 141.428 59.5636C140.795 60.5233 140.655 61.7162 141.046 62.7918ZM141.766 59.829C142.077 59.428 142.565 59.1967 143.08 59.2066H143.097C144.605 59.2149 146.282 60.8414 146.833 62.8331C147.173 63.7796 147.058 64.8259 146.52 65.6795C146.216 66.0945 145.718 66.3292 145.198 66.302C143.69 66.2937 142.012 64.6671 141.461 62.6754C141.119 61.7302 141.231 60.6839 141.766 59.829Z" fill="white"/>
<path d="M140.404 63.4012C140.363 63.4072 140.32 63.4072 140.279 63.4012C140.223 63.3808 140.182 63.3461 140.167 63.3054C140.152 63.2648 140.163 63.2218 140.199 63.1869C140.619 62.8351 141.311 62.6707 141.981 62.7641C142.105 62.7867 142.182 62.867 142.159 62.9494C142.128 63.032 142.001 63.0834 141.874 63.0653C141.874 63.0653 140.983 62.9379 140.564 63.3491C140.524 63.3803 140.466 63.3992 140.404 63.4012Z" fill="white"/>
<path d="M158.085 61.6552C157.698 63.2666 156.72 64.6855 155.336 65.6465C153.522 66.8495 152.102 65.3538 152.177 63.2566C152.244 61.3707 153.263 58.4769 155.294 58.1111C157.324 57.7453 158.544 59.6881 158.085 61.6552Z" fill="#FFC3BD"/>
<path d="M144.024 62.0774C144.253 62.5953 144.197 63.1677 143.906 63.3494C143.615 63.5311 143.198 63.2585 142.969 62.7316C142.741 62.2046 142.804 61.6413 143.087 61.4595C143.371 61.2778 143.796 61.5504 144.024 62.0774Z" fill="#263238"/>
<path d="M139.376 64.1127C139.586 64.6436 139.505 65.2014 139.198 65.3634C138.891 65.5253 138.471 65.2284 138.269 64.6976C138.067 64.1667 138.148 63.5999 138.455 63.4469C138.762 63.2939 139.174 63.5729 139.376 64.1127Z" fill="#263238"/>
<path d="M136.602 61.3643C136.716 61.3341 136.806 61.2514 136.842 61.1442C137.108 60.335 137.749 59.6862 138.58 59.3831C138.763 59.3282 138.866 59.1441 138.811 58.9693C138.788 58.8849 138.729 58.8135 138.649 58.7719C138.568 58.7302 138.473 58.722 138.386 58.7491V58.7491C137.317 59.1159 136.496 59.947 136.176 60.9857C136.145 61.0685 136.151 61.1602 136.193 61.2387C136.235 61.3172 136.309 61.3755 136.398 61.3995C136.468 61.41 136.54 61.3975 136.602 61.3643Z" fill="#263238"/>
<path fill-rule="evenodd" clip-rule="evenodd" d="M135.682 64.4448C136.226 66.4035 137.911 68.0775 139.436 68.0775C140.031 68.0923 140.597 67.8177 140.953 67.3409C141.521 66.4572 141.651 65.3613 141.305 64.3695C140.76 62.4109 139.076 60.7368 137.542 60.7368C136.951 60.7228 136.39 60.9939 136.034 61.4651C135.462 62.3509 135.332 63.4505 135.682 64.4448ZM136.369 61.7408C136.639 61.3745 137.07 61.1622 137.525 61.1717L137.534 61.1382C138.891 61.1884 140.392 62.6699 140.886 64.4863C141.19 65.3458 141.089 66.2967 140.609 67.0727C140.334 67.4361 139.901 67.6448 139.445 67.6335C138.079 67.6251 136.587 66.1436 136.092 64.3272C135.783 63.4683 135.885 62.5152 136.369 61.7408Z" fill="white"/>
<path d="M141.506 63.4053C141.465 64.9614 141.237 66.5044 140.828 67.9932C141.518 68.1904 142.252 68.0368 142.83 67.5738L141.506 63.4053Z" fill="#ED847E"/>
<path d="M142.894 69.2656C144.007 68.9203 144.944 68.0896 145.488 66.9657C145.504 66.9265 145.504 66.8821 145.49 66.8425C145.475 66.8028 145.447 66.7711 145.412 66.7543C145.339 66.7225 145.257 66.7552 145.22 66.8304C144.616 68.0473 143.531 68.8849 142.287 69.0965C142.208 69.1136 142.155 69.1947 142.164 69.2825C142.18 69.3684 142.255 69.4249 142.333 69.4093C142.523 69.3763 142.71 69.3283 142.894 69.2656V69.2656Z" fill="#263238"/>
<path d="M144.671 58.0055C144.719 57.973 144.759 57.9245 144.785 57.8656C144.88 57.6723 144.829 57.4222 144.671 57.3059C143.765 56.6292 142.644 56.5446 141.677 57.0799C141.597 57.1281 141.537 57.2139 141.511 57.3176C141.484 57.4212 141.493 57.5336 141.536 57.6288C141.622 57.8269 141.822 57.9037 141.985 57.801C142.749 57.3928 143.628 57.4693 144.336 58.0055C144.438 58.0859 144.569 58.0859 144.671 58.0055V58.0055Z" fill="#263238"/>
<path d="M144.549 116.322L139.493 114.131L139.662 120.722C139.662 120.722 144.67 122.789 145.5 120.063L144.549 116.322Z" fill="#FFC3BD"/>
<path d="M133.486 115.63L134.636 120.395L140.161 120.805L139.986 114.131L133.486 115.63V115.63Z" fill="#FFC3BD"/>
</g>
</svg>
