<svg width="139" height="120" viewBox="0 0 139 120" fill="none" xmlns="http://www.w3.org/2000/svg">
<path d="M74.4368 0H57.1909V119.999H74.4368V0Z" fill="white"/>
<path d="M74.4368 12.6821H57.1909V107.311H74.4368V12.6821Z" fill="#D9585C"/>
<path d="M138.784 12.6821H74.4355V107.311H138.784V12.6821Z" fill="#C42026"/>
<path d="M138.784 0H74.4355V12.6847H138.784V0Z" fill="#D9D8D7"/>
<path d="M138.784 107.317H74.4355V120H138.784V107.317Z" fill="#474F59"/>
<path d="M132.175 58.166H6.6084V79.5894H132.175V58.166Z" fill="white"/>
<path d="M117.83 58.166H20.96V79.5894H117.83V58.166Z" fill="#1691D3"/>
<path d="M106 70.0508H60V72.9119H106V70.0508Z" fill="white"/>
<path d="M83.0002 64.8423H60V67.7034H83.0002V64.8423Z" fill="white"/>
<path d="M138.785 103.34H0V120H138.785V103.34Z" fill="#8BA840"/>
<path d="M35.696 103.34H23.7861V120H35.696V103.34Z" fill="white"/>
<path d="M19.8353 103.34H15.8613V120H19.8353V103.34Z" fill="white"/>
<path d="M114.995 103.34H103.089V120H114.995V103.34Z" fill="white"/>
<path d="M122.925 103.34H118.951V120H122.925V103.34Z" fill="white"/>
<path d="M127.25 81.0994C126.244 80.0913 124.916 79.5845 123.588 79.5845H10.0171V82.6064H123.588C124.162 82.6064 124.705 82.8299 125.109 83.2381C125.522 83.6468 125.741 84.1895 125.741 84.7633V98.1522C125.741 98.7297 125.522 99.2748 125.109 99.6811C124.705 100.086 124.162 100.311 123.588 100.311H10.0171V103.337H123.588C124.916 103.337 126.244 102.83 127.25 101.82C128.263 100.804 128.771 99.4777 128.771 98.154V84.7652C128.771 83.4397 128.262 82.1154 127.25 81.0994Z" fill="#FBD45F"/>
<path d="M128.771 84.7597V98.1601C128.771 99.488 128.268 100.796 127.243 101.822C126.236 102.829 124.908 103.331 123.58 103.331H27.7832L29.9359 100.313H123.579C124.163 100.313 124.706 100.092 125.108 99.6872C125.511 99.2645 125.732 98.7236 125.732 98.1583V84.7579C125.732 84.1944 125.511 83.6511 125.108 83.2289C124.705 82.8263 124.162 82.6052 123.579 82.6052H42.6328L44.7854 79.5869H123.579C124.907 79.5869 126.235 80.0901 127.241 81.0957C128.268 82.124 128.771 83.4318 128.771 84.7597Z" fill="#DAAA1B"/>
<path d="M13.0386 100.311V82.6064H123.588C124.161 82.6064 124.704 82.83 125.109 83.2381C125.521 83.6468 125.741 84.1896 125.741 84.7634V98.1522C125.741 98.7297 125.521 99.2749 125.109 99.6812C124.704 100.086 124.161 100.311 123.588 100.311H13.0386Z" fill="white"/>
<path d="M125.736 93.7515H69.3916V94.7437H125.736V93.7515Z" fill="#CCCBCA"/>
<path d="M69.3937 83.6002H125.398C125.316 83.4717 125.221 83.3492 125.108 83.2378C124.709 82.8363 124.173 82.6134 123.608 82.6079H69.3931V83.6002H69.3937Z" fill="#CCCBCA"/>
<path d="M125.736 86.3203H69.3916V87.3163H125.736V86.3203Z" fill="#CCCBCA"/>
<path d="M125.736 91.8936H69.3916V92.8852H125.736V91.8936Z" fill="#CCCBCA"/>
<path d="M69.3933 85.4577H125.74V84.7633C125.74 84.6628 125.725 84.5654 125.712 84.4673H69.3933V85.4577Z" fill="#CCCBCA"/>
<path d="M125.736 90.0356H69.3916V91.0273H125.736V90.0356Z" fill="#CCCBCA"/>
<path d="M125.736 95.6094H69.3916V96.6011H125.736V95.6094Z" fill="#CCCBCA"/>
<path d="M69.3933 100.311H123.587C124.16 100.311 124.704 100.087 125.108 99.6808C125.22 99.5705 125.315 99.4487 125.397 99.3208H69.3933V100.311Z" fill="#CCCBCA"/>
<path d="M125.736 88.1777H69.3916V89.1755H125.736V88.1777Z" fill="#CCCBCA"/>
<path d="M69.3933 98.4557H125.711C125.725 98.3552 125.74 98.2547 125.74 98.1517V97.4634H69.3933V98.4557Z" fill="#CCCBCA"/>
<path d="M69.3936 82.6064V82.6083H123.608C123.601 82.6083 123.595 82.6064 123.587 82.6064H69.3936Z" fill="white"/>
<path d="M69.3936 84.468H125.712C125.67 84.1586 125.568 83.8631 125.398 83.6006H69.3936V84.468Z" fill="#F2F2F2"/>
<path d="M125.736 85.4556H69.3916V86.3187H125.736V85.4556Z" fill="#F2F2F2"/>
<path d="M125.736 87.3193H69.3916V88.1782H125.736V87.3193Z" fill="#F2F2F2"/>
<path d="M125.736 89.1709H69.3916V90.0322H125.736V89.1709Z" fill="#F2F2F2"/>
<path d="M125.736 91.0288H69.3916V91.8962H125.736V91.0288Z" fill="#F2F2F2"/>
<path d="M125.736 92.8867H69.3916V93.7499H125.736V92.8867Z" fill="#F2F2F2"/>
<path d="M125.736 94.7446H69.3916V95.612H125.736V94.7446Z" fill="#F2F2F2"/>
<path d="M125.736 96.6025H69.3916V97.4657H125.736V96.6025Z" fill="#F2F2F2"/>
<path d="M69.3933 99.321H125.397C125.566 99.0603 125.668 98.7655 125.711 98.4561H69.3933V99.321Z" fill="#F2F2F2"/>
<path d="M111.954 95.6069H104.65V112.059L108.298 108.409L111.954 112.059V95.6069Z" fill="#F9A490"/>
<path d="M114.304 28L112.372 25.24C113.512 24.796 114.16 23.86 114.16 22.588C114.16 20.728 112.792 19.6 110.584 19.6H107.128V28H108.688V25.552H110.584C110.692 25.552 110.8 25.552 110.908 25.54L112.624 28H114.304ZM112.588 22.588C112.588 23.644 111.88 24.268 110.512 24.268H108.688V20.92H110.512C111.88 20.92 112.588 21.532 112.588 22.588ZM117.465 26.692V24.376H121.521V23.092H117.465V20.908H122.037V19.6H115.905V28H122.205V26.692H117.465ZM129.645 26.32C129.105 26.632 128.517 26.752 127.917 26.752C126.141 26.752 124.881 25.504 124.881 23.8C124.881 22.06 126.141 20.848 127.929 20.848C128.829 20.848 129.585 21.148 130.245 21.808L131.229 20.848C130.437 19.948 129.261 19.48 127.857 19.48C125.229 19.48 123.309 21.292 123.309 23.8C123.309 26.308 125.229 28.12 127.833 28.12C129.021 28.12 130.245 27.76 131.121 27.052V23.704H129.645V26.32Z" fill="white"/>
<path d="M35.08 68.632C35.728 68.284 36.16 67.648 36.16 66.784C36.16 65.452 35.08 64.6 33.064 64.6H29.128V73H33.304C35.464 73 36.592 72.16 36.592 70.72C36.592 69.628 35.98 68.92 35.08 68.632ZM32.896 65.824C33.976 65.824 34.588 66.208 34.588 66.988C34.588 67.756 33.976 68.14 32.896 68.14H30.688V65.824H32.896ZM33.208 71.776H30.688V69.352H33.208C34.384 69.352 35.02 69.724 35.02 70.564C35.02 71.404 34.384 71.776 33.208 71.776ZM39.8169 71.692V69.376H43.8729V68.092H39.8169V65.908H44.3889V64.6H38.2569V73H44.5569V71.692H39.8169ZM50.1488 73.12C51.5288 73.12 52.7048 72.628 53.4848 71.716L52.4768 70.756C51.8648 71.428 51.1088 71.752 50.2328 71.752C48.4928 71.752 47.2328 70.528 47.2328 68.8C47.2328 67.072 48.4928 65.848 50.2328 65.848C51.1088 65.848 51.8648 66.172 52.4768 66.832L53.4848 65.884C52.7048 64.972 51.5288 64.48 50.1608 64.48C47.5808 64.48 45.6608 66.292 45.6608 68.8C45.6608 71.308 47.5808 73.12 50.1488 73.12Z" fill="white"/>
<path d="M48.416 116H50.048L46.256 107.6H44.72L40.94 116H42.548L43.376 114.056H47.576L48.416 116ZM43.904 112.832L45.476 109.16L47.06 112.832H43.904ZM54.5525 116.12C56.8445 116.12 58.2245 114.788 58.2245 112.34V107.6H56.6885V112.28C56.6885 114.008 55.9205 114.752 54.5645 114.752C53.2085 114.752 52.4285 114.008 52.4285 112.28V107.6H50.8685V112.34C50.8685 114.788 52.2485 116.12 54.5525 116.12ZM60.4093 116H64.0813C66.8053 116 68.6653 114.32 68.6653 111.8C68.6653 109.28 66.8053 107.6 64.0813 107.6H60.4093V116ZM61.9693 114.68V108.92H64.0093C65.8813 108.92 67.0933 110.06 67.0933 111.8C67.0933 113.54 65.8813 114.68 64.0093 114.68H61.9693Z" fill="white"/>
</svg>
