<svg width="710" height="26" viewBox="0 0 710 26" fill="none" xmlns="http://www.w3.org/2000/svg">
<path d="M42.651 25.967L0 12.988L42.651 0V25.967Z" fill="#F2F2F2"/>
<path d="M0 12.9883L42.651 25.9673V17.8053L0 12.9883Z" fill="#CCCBCA"/>
<path d="M666 0H43V26H666V0Z" fill="#F77B55"/>
<path d="M666 18H43V26H666V18Z" fill="#EE643C"/>
<path d="M16.691 18.062L0 12.988L16.691 7.875V18.062Z" fill="#353F49"/>
<path d="M681.407 0.00292969H666.347V25.9659H681.407V0.00292969Z" fill="#F2F2F2"/>
<path d="M681.407 17.8027H666.347V25.9648H681.407V17.8027Z" fill="#CCCBCA"/>
<path d="M696.009 25.9669C699.335 25.9669 702.665 24.6989 705.195 22.1679C707.735 19.6249 708.994 16.3109 708.994 12.9879C708.994 9.66485 707.732 6.34488 705.195 3.81488C702.661 1.27188 699.335 0.00585938 696.009 0.00585938H681.399V25.9689H696.009V25.9669Z" fill="#474F59"/>
<path d="M705.198 3.81171C703.731 2.33871 701.961 1.34073 700.128 0.719727C700.557 2.05473 700.832 3.42872 700.832 4.82272C700.832 8.13872 699.564 11.4617 697.04 13.9987C694.5 16.5387 691.183 17.8007 687.847 17.8007H681.406V25.9627H696.016C699.342 25.9627 702.672 24.6947 705.202 22.1637C707.742 19.6207 709.001 16.3067 709.001 12.9837C709.001 9.6607 707.735 6.34171 705.198 3.81171Z" fill="#232E38"/>
</svg>
