<svg width="140" height="176" viewBox="0 0 140 176" fill="none" xmlns="http://www.w3.org/2000/svg">
<path d="M74 40L74 156" stroke="#252225" stroke-width="2" stroke-linecap="round"/>
<path d="M74 41L74 56" stroke="#1F1B1F" stroke-width="2" stroke-linecap="round"/>
<path d="M66 48L74 40L82 48" stroke="#1F1B1F" stroke-width="2" stroke-linecap="round" stroke-linejoin="round"/>
<rect opacity="0.4" width="40" height="40" rx="20" transform="matrix(1 0 0 -1 54 176)" fill="#407BFF"/>
<rect x="1" y="-1" width="38" height="38" rx="19" transform="matrix(1 0 0 -1 54 174)" stroke="#407BFF" stroke-width="2"/>
<circle r="4.5" transform="matrix(1 0 0 -1 74 156)" fill="white" stroke="#160E16" stroke-width="3"/>
<path d="M4.72 19H7.32V7.2H11.96V5H0.08V7.2H4.72V19ZM17.3775 19.14C20.6975 19.14 23.0775 16.86 23.0775 13.66C23.0775 10.46 20.6975 8.2 17.3775 8.2C14.0975 8.2 11.6975 10.46 11.6975 13.66C11.6975 16.86 14.0975 19.14 17.3775 19.14ZM17.3775 17C15.5775 17 14.2175 15.7 14.2175 13.66C14.2175 11.62 15.5775 10.32 17.3775 10.32C19.1975 10.32 20.5575 11.62 20.5575 13.66C20.5575 15.7 19.1975 17 17.3775 17ZM35.3355 6.04C35.8555 6.04 36.3355 6.22 36.7155 6.48L37.4155 4.6C36.8555 4.2 36.0155 4.02 35.1555 4.02C32.6755 4.02 31.3355 5.48 31.3355 7.72V8.4H29.5755V10.4H31.3355V19H33.8355V10.4H36.6955V8.4H33.7555V7.76C33.7555 6.62 34.2955 6.04 35.3355 6.04ZM42.263 8.2C40.543 8.2 38.883 8.64 37.743 9.52L38.723 11.34C39.523 10.68 40.763 10.28 41.963 10.28C43.743 10.28 44.623 11.14 44.623 12.6V12.76H41.863C38.623 12.76 37.423 14.16 37.423 15.94C37.423 17.8 38.963 19.14 41.403 19.14C43.003 19.14 44.163 18.62 44.763 17.7V19H47.123V12.74C47.123 9.66 45.343 8.2 42.263 8.2ZM41.923 17.32C40.643 17.32 39.883 16.74 39.883 15.84C39.883 15.06 40.343 14.42 42.043 14.42H44.623V15.66C44.203 16.76 43.143 17.32 41.923 17.32ZM53.6314 19.14C56.6314 19.14 58.4714 17.84 58.4714 15.84C58.4714 11.66 51.8714 13.58 51.8714 11.42C51.8714 10.72 52.5914 10.22 54.1114 10.22C55.1314 10.22 56.1514 10.42 57.1714 11.02L58.1314 9.12C57.1714 8.54 55.5514 8.2 54.1314 8.2C51.2514 8.2 49.4314 9.52 49.4314 11.54C49.4314 15.8 56.0314 13.88 56.0314 15.92C56.0314 16.66 55.3714 17.1 53.7914 17.1C52.4514 17.1 51.0114 16.66 50.0714 16.04L49.1114 17.94C50.0714 18.62 51.8514 19.14 53.6314 19.14ZM66.3444 16.64C65.9644 16.94 65.4644 17.08 64.9444 17.08C63.9844 17.08 63.4644 16.52 63.4644 15.48V10.4H66.3244V8.4H63.4644V5.96H60.9644V8.4H59.2044V10.4H60.9644V15.54C60.9644 17.9 62.3044 19.14 64.6444 19.14C65.5444 19.14 66.4444 18.9 67.0444 18.42L66.3444 16.64ZM82.2283 8.32L78.8483 16.22L75.4883 8.32H72.8883L77.5483 19.04L77.3683 19.46C76.8883 20.52 76.3683 20.94 75.4883 20.94C74.8083 20.94 74.1283 20.66 73.6483 20.2L72.6483 22.04C73.3283 22.66 74.4483 23.02 75.5083 23.02C77.2883 23.02 78.6483 22.28 79.6283 19.86L84.6283 8.32H82.2283ZM90.6978 19.14C94.0178 19.14 96.3978 16.86 96.3978 13.66C96.3978 10.46 94.0178 8.2 90.6978 8.2C87.4178 8.2 85.0178 10.46 85.0178 13.66C85.0178 16.86 87.4178 19.14 90.6978 19.14ZM90.6978 17C88.8978 17 87.5378 15.7 87.5378 13.66C87.5378 11.62 88.8978 10.32 90.6978 10.32C92.5178 10.32 93.8778 11.62 93.8778 13.66C93.8778 15.7 92.5178 17 90.6978 17ZM106.628 8.32V13.72C106.628 15.86 105.448 16.94 103.708 16.94C102.128 16.94 101.208 16.02 101.208 14.08V8.32H98.7084V14.42C98.7084 17.64 100.568 19.14 103.308 19.14C104.688 19.14 105.948 18.62 106.748 17.64V19H109.128V8.32H106.628ZM114.782 9.88V8.32H112.402V19H114.902V13.82C114.902 11.64 116.102 10.52 118.002 10.52C118.182 10.52 118.362 10.54 118.582 10.58V8.2C116.802 8.2 115.502 8.76 114.782 9.88Z" fill="black"/>
</svg>
