<svg width="172" height="36" viewBox="0 0 172 36" fill="none" xmlns="http://www.w3.org/2000/svg">
<path d="M0 4C0 1.79086 1.79086 0 4 0H154.204C155.346 0 156.434 0.488591 157.193 1.34254L169.638 15.3425C170.985 16.8581 170.985 19.1419 169.638 20.6575L157.193 34.6575C156.434 35.5114 155.346 36 154.204 36H4C1.79086 36 0 34.2091 0 32V4Z" fill="#0D8140"/>
<path d="M16.9181 24V12.8H18.6301L23.5261 20.976H22.6301L27.4461 12.8H29.1581L29.1741 24H27.2061L27.1901 15.888H27.6061L23.5101 22.72H22.5821L18.4221 15.888H18.9021V24H16.9181ZM32.0073 24V15.456H34.0073V24H32.0073ZM33.0153 14.048C32.642 14.048 32.3326 13.9307 32.0873 13.696C31.8526 13.4613 31.7353 13.1787 31.7353 12.848C31.7353 12.5067 31.8526 12.224 32.0873 12C32.3326 11.7653 32.642 11.648 33.0153 11.648C33.3886 11.648 33.6926 11.76 33.9273 11.984C34.1726 12.1973 34.2953 12.4693 34.2953 12.8C34.2953 13.152 34.178 13.4507 33.9433 13.696C33.7086 13.9307 33.3993 14.048 33.0153 14.048ZM36.6323 24V12.128H38.6323V24H36.6323ZM45.2733 24.112C44.324 24.112 43.492 23.9253 42.7773 23.552C42.0733 23.168 41.524 22.6453 41.1293 21.984C40.7453 21.3227 40.5533 20.5707 40.5533 19.728C40.5533 18.8747 40.74 18.1227 41.1133 17.472C41.4973 16.8107 42.02 16.2933 42.6813 15.92C43.3533 15.5467 44.116 15.36 44.9693 15.36C45.8013 15.36 46.5426 15.5413 47.1933 15.904C47.844 16.2667 48.356 16.7787 48.7293 17.44C49.1026 18.1013 49.2893 18.88 49.2893 19.776C49.2893 19.8613 49.284 19.9573 49.2733 20.064C49.2733 20.1707 49.268 20.272 49.2573 20.368H42.1373V19.04H48.2013L47.4173 19.456C47.428 18.9653 47.3266 18.5333 47.1133 18.16C46.9 17.7867 46.6066 17.4933 46.2333 17.28C45.8706 17.0667 45.4493 16.96 44.9693 16.96C44.4786 16.96 44.0466 17.0667 43.6733 17.28C43.3106 17.4933 43.0226 17.792 42.8093 18.176C42.6066 18.5493 42.5053 18.992 42.5053 19.504V19.824C42.5053 20.336 42.6226 20.7893 42.8573 21.184C43.092 21.5787 43.4226 21.8827 43.8493 22.096C44.276 22.3093 44.7666 22.416 45.3213 22.416C45.8013 22.416 46.2333 22.3413 46.6173 22.192C47.0013 22.0427 47.3426 21.808 47.6413 21.488L48.7133 22.72C48.3293 23.168 47.844 23.5147 47.2573 23.76C46.6813 23.9947 46.02 24.112 45.2733 24.112ZM53.8504 24.112C53.1358 24.112 52.4478 24.0213 51.7864 23.84C51.1358 23.648 50.6184 23.4187 50.2344 23.152L51.0024 21.632C51.3864 21.8773 51.8451 22.08 52.3784 22.24C52.9118 22.4 53.4451 22.48 53.9784 22.48C54.6078 22.48 55.0611 22.3947 55.3384 22.224C55.6264 22.0533 55.7704 21.824 55.7704 21.536C55.7704 21.3013 55.6744 21.1253 55.4824 21.008C55.2904 20.88 55.0398 20.784 54.7304 20.72C54.4211 20.656 54.0744 20.5973 53.6904 20.544C53.3171 20.4907 52.9384 20.4213 52.5544 20.336C52.1811 20.24 51.8398 20.1067 51.5304 19.936C51.2211 19.7547 50.9704 19.5147 50.7784 19.216C50.5864 18.9173 50.4904 18.5227 50.4904 18.032C50.4904 17.488 50.6451 17.0187 50.9544 16.624C51.2638 16.2187 51.6958 15.9093 52.2504 15.696C52.8158 15.472 53.4824 15.36 54.2504 15.36C54.8264 15.36 55.4078 15.424 55.9944 15.552C56.5811 15.68 57.0664 15.8613 57.4504 16.096L56.6824 17.616C56.2771 17.3707 55.8664 17.2053 55.4504 17.12C55.0451 17.024 54.6398 16.976 54.2344 16.976C53.6264 16.976 53.1731 17.0667 52.8744 17.248C52.5864 17.4293 52.4424 17.6587 52.4424 17.936C52.4424 18.192 52.5384 18.384 52.7304 18.512C52.9224 18.64 53.1731 18.7413 53.4824 18.816C53.7918 18.8907 54.1331 18.9547 54.5064 19.008C54.8904 19.0507 55.2691 19.12 55.6424 19.216C56.0158 19.312 56.3571 19.4453 56.6664 19.616C56.9864 19.776 57.2424 20.0053 57.4344 20.304C57.6264 20.6027 57.7224 20.992 57.7224 21.472C57.7224 22.0053 57.5624 22.4693 57.2424 22.864C56.9331 23.2587 56.4904 23.568 55.9144 23.792C55.3384 24.0053 54.6504 24.112 53.8504 24.112ZM62.0848 24.112C61.3701 24.112 60.6821 24.0213 60.0208 23.84C59.3701 23.648 58.8528 23.4187 58.4688 23.152L59.2368 21.632C59.6208 21.8773 60.0795 22.08 60.6128 22.24C61.1461 22.4 61.6795 22.48 62.2128 22.48C62.8421 22.48 63.2955 22.3947 63.5728 22.224C63.8608 22.0533 64.0048 21.824 64.0048 21.536C64.0048 21.3013 63.9088 21.1253 63.7168 21.008C63.5248 20.88 63.2741 20.784 62.9648 20.72C62.6555 20.656 62.3088 20.5973 61.9248 20.544C61.5515 20.4907 61.1728 20.4213 60.7888 20.336C60.4155 20.24 60.0741 20.1067 59.7648 19.936C59.4555 19.7547 59.2048 19.5147 59.0128 19.216C58.8208 18.9173 58.7248 18.5227 58.7248 18.032C58.7248 17.488 58.8795 17.0187 59.1888 16.624C59.4981 16.2187 59.9301 15.9093 60.4848 15.696C61.0501 15.472 61.7168 15.36 62.4848 15.36C63.0608 15.36 63.6421 15.424 64.2288 15.552C64.8155 15.68 65.3008 15.8613 65.6848 16.096L64.9168 17.616C64.5115 17.3707 64.1008 17.2053 63.6848 17.12C63.2795 17.024 62.8741 16.976 62.4688 16.976C61.8608 16.976 61.4075 17.0667 61.1088 17.248C60.8208 17.4293 60.6768 17.6587 60.6768 17.936C60.6768 18.192 60.7728 18.384 60.9648 18.512C61.1568 18.64 61.4075 18.7413 61.7168 18.816C62.0261 18.8907 62.3675 18.9547 62.7408 19.008C63.1248 19.0507 63.5035 19.12 63.8768 19.216C64.2501 19.312 64.5915 19.4453 64.9008 19.616C65.2208 19.776 65.4768 20.0053 65.6688 20.304C65.8608 20.6027 65.9568 20.992 65.9568 21.472C65.9568 22.0053 65.7968 22.4693 65.4768 22.864C65.1675 23.2587 64.7248 23.568 64.1488 23.792C63.5728 24.0053 62.8848 24.112 62.0848 24.112ZM70.8952 24.112C69.9565 24.112 69.2312 23.872 68.7192 23.392C68.2072 22.9013 67.9512 22.1813 67.9512 21.232V13.568H69.9512V21.184C69.9512 21.5893 70.0525 21.904 70.2552 22.128C70.4685 22.352 70.7619 22.464 71.1352 22.464C71.5832 22.464 71.9565 22.3467 72.2552 22.112L72.8152 23.536C72.5805 23.728 72.2925 23.872 71.9512 23.968C71.6099 24.064 71.2579 24.112 70.8952 24.112ZM66.5432 17.12V15.52H72.2392V17.12H66.5432ZM78.0192 24.112C77.1445 24.112 76.3659 23.9253 75.6832 23.552C75.0005 23.168 74.4619 22.6453 74.0672 21.984C73.6725 21.3227 73.4752 20.5707 73.4752 19.728C73.4752 18.8747 73.6725 18.1227 74.0672 17.472C74.4619 16.8107 75.0005 16.2933 75.6832 15.92C76.3659 15.5467 77.1445 15.36 78.0192 15.36C78.9045 15.36 79.6885 15.5467 80.3712 15.92C81.0645 16.2933 81.6032 16.8053 81.9872 17.456C82.3819 18.1067 82.5792 18.864 82.5792 19.728C82.5792 20.5707 82.3819 21.3227 81.9872 21.984C81.6032 22.6453 81.0645 23.168 80.3712 23.552C79.6885 23.9253 78.9045 24.112 78.0192 24.112ZM78.0192 22.4C78.5099 22.4 78.9472 22.2933 79.3312 22.08C79.7152 21.8667 80.0139 21.5573 80.2272 21.152C80.4512 20.7467 80.5632 20.272 80.5632 19.728C80.5632 19.1733 80.4512 18.6987 80.2272 18.304C80.0139 17.8987 79.7152 17.5893 79.3312 17.376C78.9472 17.1627 78.5152 17.056 78.0352 17.056C77.5445 17.056 77.1072 17.1627 76.7232 17.376C76.3499 17.5893 76.0512 17.8987 75.8272 18.304C75.6032 18.6987 75.4912 19.1733 75.4912 19.728C75.4912 20.272 75.6032 20.7467 75.8272 21.152C76.0512 21.5573 76.3499 21.8667 76.7232 22.08C77.1072 22.2933 77.5392 22.4 78.0192 22.4ZM89.3397 15.36C90.0224 15.36 90.6304 15.4933 91.1637 15.76C91.7077 16.0267 92.1344 16.4373 92.4437 16.992C92.753 17.536 92.9077 18.24 92.9077 19.104V24H90.9077V19.36C90.9077 18.6027 90.7264 18.0373 90.3637 17.664C90.0117 17.2907 89.5157 17.104 88.8757 17.104C88.4064 17.104 87.9904 17.2 87.6277 17.392C87.265 17.584 86.9824 17.872 86.7797 18.256C86.5877 18.6293 86.4917 19.104 86.4917 19.68V24H84.4917V15.456H86.3957V17.76L86.0597 17.056C86.3584 16.512 86.7904 16.096 87.3557 15.808C87.9317 15.5093 88.593 15.36 89.3397 15.36ZM99.4764 24.112C98.5271 24.112 97.6951 23.9253 96.9804 23.552C96.2764 23.168 95.7271 22.6453 95.3324 21.984C94.9484 21.3227 94.7564 20.5707 94.7564 19.728C94.7564 18.8747 94.9431 18.1227 95.3164 17.472C95.7004 16.8107 96.2231 16.2933 96.8844 15.92C97.5564 15.5467 98.3191 15.36 99.1724 15.36C100.004 15.36 100.746 15.5413 101.396 15.904C102.047 16.2667 102.559 16.7787 102.932 17.44C103.306 18.1013 103.492 18.88 103.492 19.776C103.492 19.8613 103.487 19.9573 103.476 20.064C103.476 20.1707 103.471 20.272 103.46 20.368H96.3404V19.04H102.404L101.62 19.456C101.631 18.9653 101.53 18.5333 101.316 18.16C101.103 17.7867 100.81 17.4933 100.436 17.28C100.074 17.0667 99.6524 16.96 99.1724 16.96C98.6818 16.96 98.2498 17.0667 97.8764 17.28C97.5138 17.4933 97.2258 17.792 97.0124 18.176C96.8098 18.5493 96.7084 18.992 96.7084 19.504V19.824C96.7084 20.336 96.8258 20.7893 97.0604 21.184C97.2951 21.5787 97.6258 21.8827 98.0524 22.096C98.4791 22.3093 98.9698 22.416 99.5244 22.416C100.004 22.416 100.436 22.3413 100.82 22.192C101.204 22.0427 101.546 21.808 101.844 21.488L102.916 22.72C102.532 23.168 102.047 23.5147 101.46 23.76C100.884 23.9947 100.223 24.112 99.4764 24.112ZM113.899 24.16C113.014 24.16 112.214 23.936 111.499 23.488C110.795 23.04 110.241 22.3893 109.835 21.536C109.43 20.672 109.227 19.6267 109.227 18.4C109.227 17.1733 109.43 16.1333 109.835 15.28C110.241 14.416 110.795 13.76 111.499 13.312C112.214 12.864 113.014 12.64 113.899 12.64C114.795 12.64 115.595 12.864 116.299 13.312C117.003 13.76 117.558 14.416 117.963 15.28C118.379 16.1333 118.587 17.1733 118.587 18.4C118.587 19.6267 118.379 20.672 117.963 21.536C117.558 22.3893 117.003 23.04 116.299 23.488C115.595 23.936 114.795 24.16 113.899 24.16ZM113.899 22.352C114.422 22.352 114.875 22.2133 115.259 21.936C115.643 21.648 115.942 21.2107 116.155 20.624C116.379 20.0373 116.491 19.296 116.491 18.4C116.491 17.4933 116.379 16.752 116.155 16.176C115.942 15.5893 115.643 15.1573 115.259 14.88C114.875 14.592 114.422 14.448 113.899 14.448C113.398 14.448 112.95 14.592 112.555 14.88C112.171 15.1573 111.867 15.5893 111.643 16.176C111.43 16.752 111.323 17.4933 111.323 18.4C111.323 19.296 111.43 20.0373 111.643 20.624C111.867 21.2107 112.171 21.648 112.555 21.936C112.95 22.2133 113.398 22.352 113.899 22.352ZM119.833 24V22.608L124.281 18.384C124.655 18.032 124.932 17.7227 125.113 17.456C125.295 17.1893 125.412 16.944 125.465 16.72C125.529 16.4853 125.561 16.2667 125.561 16.064C125.561 15.552 125.385 15.1573 125.033 14.88C124.681 14.592 124.164 14.448 123.481 14.448C122.937 14.448 122.441 14.544 121.993 14.736C121.556 14.928 121.177 15.2213 120.857 15.616L119.401 14.496C119.839 13.9093 120.425 13.456 121.161 13.136C121.908 12.8053 122.74 12.64 123.657 12.64C124.468 12.64 125.172 12.7733 125.769 13.04C126.377 13.296 126.841 13.664 127.161 14.144C127.492 14.624 127.657 15.1947 127.657 15.856C127.657 16.2187 127.609 16.5813 127.513 16.944C127.417 17.296 127.236 17.6693 126.969 18.064C126.703 18.4587 126.313 18.9013 125.801 19.392L121.977 23.024L121.545 22.24H128.089V24H119.833Z" fill="white"/>
<path d="M4.5 6C4.5 4.067 6.067 2.5 8 2.5H151.031C151.988 2.5 152.904 2.892 153.564 3.58474L165.006 15.5847C166.295 16.9369 166.295 19.0632 165.006 20.4153L153.564 32.4153C152.904 33.108 151.988 33.5 151.031 33.5H8C6.06701 33.5 4.5 31.933 4.5 30V6Z" stroke="white"/>
</svg>
