<svg width="141" height="59" viewBox="0 0 141 59" fill="none" xmlns="http://www.w3.org/2000/svg">
<path d="M5.77441 31.7316L9.47544 18.795C9.64629 18.1976 10.2671 17.8496 10.8659 18.0155L70.3177 34.4814L64.9801 47.3455L5.77441 31.7316Z" fill="#F3F0F3"/>
<path d="M62.7038 32.3726L57.3286 45.3275L64.9803 47.3453L70.3179 34.4813L62.7038 32.3726Z" fill="#E2DEE2"/>
<path d="M134.861 31.7316L131.16 18.795C130.989 18.1976 130.369 17.8496 129.77 18.0155L70.3179 34.4814L75.6554 47.3455L134.861 31.7316Z" fill="#F3F0F3"/>
<path d="M127.158 33.7634L134.861 31.7316L131.16 18.795C130.989 18.1976 130.369 17.8496 129.77 18.0155L123 19.8907L127.158 33.7634Z" fill="#E2DEE2"/>
<path d="M140.501 30.9855C139.916 28.7251 137.599 27.3638 135.325 27.9445L76.3451 43.0104C74.4658 43.4908 73.152 45.1743 73.152 47.1031C73.152 48.6564 71.8805 49.9202 70.3179 49.9202C68.7549 49.9202 67.4837 48.6564 67.4837 47.1031C67.4837 45.1743 66.1699 43.4908 64.2906 43.0104L5.31064 27.9445C3.03602 27.3644 0.719101 28.7248 0.134858 30.9855C-0.449659 33.2458 0.920166 35.5487 3.19423 36.1299L59.5123 50.5157C60.97 55.0663 65.2627 58.3713 70.3179 58.3713C75.3731 58.3713 79.6657 55.0663 81.1237 50.5157L137.442 36.1299C139.716 35.549 141.085 33.2458 140.501 30.9855Z" fill="#1691D3"/>
<path d="M140.501 30.9855C139.916 28.7251 137.599 27.3638 135.325 27.9445L127.979 29.8208C130.066 29.6854 132.274 31.089 132.795 33.1076C133.285 34.9996 132.402 36.9174 130.768 37.8343L137.442 36.1296C139.715 35.5487 141.085 33.2458 140.501 30.9855Z" fill="#2B739A"/>
<path d="M70.3181 36.3792C69.8802 36.3792 69.4424 36.2399 69.0746 35.9614L26.4622 3.70307C25.5553 3.01637 25.3764 1.72427 26.0631 0.817284C26.7498 -0.0897067 28.0416 -0.26879 28.9492 0.418183L70.3181 31.7352L111.687 0.417906C112.594 -0.269067 113.886 -0.0905243 114.573 0.817016C115.26 1.72401 115.081 3.01609 114.174 3.70279L71.5616 35.9611C71.1938 36.2399 70.7559 36.3792 70.3181 36.3792Z" fill="#F3F0F3"/>
<path d="M70.318 36.541C70.0095 36.541 69.701 36.4718 69.4165 36.3334L15.6596 10.174C14.6364 9.6763 14.2109 8.44299 14.7086 7.42008C15.2066 6.39718 16.4399 5.97225 17.4626 6.46914L70.318 32.1901L123.173 6.46914C124.197 5.9717 125.429 6.39745 125.927 7.42008C126.425 8.44326 125.999 9.6763 124.976 10.174L71.2195 36.3334C70.9349 36.4718 70.6264 36.541 70.318 36.541Z" fill="#E2DEE2"/>
</svg>
