<svg width="138" height="138" viewBox="0 0 138 138" fill="none" xmlns="http://www.w3.org/2000/svg">
<path d="M69 100L69 20" stroke="#211E21" stroke-width="2" stroke-linecap="round"/>
<path d="M69 99L69 84" stroke="#211E21" stroke-width="2" stroke-linecap="round"/>
<path d="M61 92L69 100L77 92" stroke="#211E21" stroke-width="2" stroke-linecap="round" stroke-linejoin="round"/>
<rect opacity="0.4" x="49" width="40" height="40" rx="20" fill="#407BFF"/>
<rect x="50" y="1" width="38" height="38" rx="19" stroke="#407BFF" stroke-width="2"/>
<circle cx="69" cy="20" r="4.5" fill="white" stroke="#160E16" stroke-width="3"/>
<path d="M11.44 130.2C10.54 130.72 9.56 130.92 8.56 130.92C5.6 130.92 3.5 128.84 3.5 126C3.5 123.1 5.6 121.08 8.58 121.08C10.08 121.08 11.34 121.58 12.44 122.68L14.08 121.08C12.76 119.58 10.8 118.8 8.46 118.8C4.08 118.8 0.88 121.82 0.88 126C0.88 130.18 4.08 133.2 8.42 133.2C10.4 133.2 12.44 132.6 13.9 131.42V125.84H11.44V130.2ZM24.9292 122.32V127.72C24.9292 129.86 23.7492 130.94 22.0092 130.94C20.4292 130.94 19.5092 130.02 19.5092 128.08V122.32H17.0092V128.42C17.0092 131.64 18.8692 133.14 21.6092 133.14C22.9892 133.14 24.2492 132.62 25.0492 131.64V133H27.4292V122.32H24.9292ZM31.9625 120.56C32.9025 120.56 33.5625 119.88 33.5625 119C33.5625 118.18 32.8825 117.56 31.9625 117.56C31.0425 117.56 30.3625 118.22 30.3625 119.06C30.3625 119.9 31.0425 120.56 31.9625 120.56ZM30.7025 133H33.2025V122.32H30.7025V133ZM44.4438 118.16V123.64C43.6038 122.66 42.3838 122.2 41.0038 122.2C37.9038 122.2 35.6038 124.34 35.6038 127.66C35.6038 130.98 37.9038 133.14 41.0038 133.14C42.4638 133.14 43.7038 132.64 44.5438 131.62V133H46.9438V118.16H44.4438ZM41.3038 131C39.5038 131 38.1238 129.7 38.1238 127.66C38.1238 125.62 39.5038 124.32 41.3038 124.32C43.1038 124.32 44.4838 125.62 44.4838 127.66C44.4838 129.7 43.1038 131 41.3038 131ZM60.2542 127.72C60.2542 124.38 57.9742 122.2 54.8542 122.2C51.6742 122.2 49.3342 124.48 49.3342 127.66C49.3342 130.84 51.6542 133.14 55.2342 133.14C57.0742 133.14 58.5742 132.54 59.5342 131.4L58.1942 129.86C57.4342 130.64 56.4942 131.02 55.2942 131.02C53.4342 131.02 52.1342 130.02 51.8342 128.46H60.2142C60.2342 128.22 60.2542 127.92 60.2542 127.72ZM54.8542 124.2C56.4942 124.2 57.6742 125.26 57.8742 126.8H51.8142C52.0542 125.24 53.2342 124.2 54.8542 124.2ZM72.763 133.2C76.603 133.2 78.423 131.28 78.423 129.04C78.423 123.9 70.123 125.84 70.123 122.86C70.123 121.8 71.003 120.96 73.163 120.96C74.383 120.96 75.763 121.32 77.023 122.06L77.843 120.04C76.623 119.24 74.863 118.8 73.183 118.8C69.343 118.8 67.543 120.72 67.543 122.98C67.543 128.18 75.863 126.2 75.863 129.22C75.863 130.26 74.943 131.04 72.763 131.04C71.043 131.04 69.263 130.4 68.143 129.5L67.243 131.52C68.403 132.52 70.583 133.2 72.763 133.2ZM85.6611 133.14C87.7411 133.14 89.4011 132.24 90.2211 130.64L88.3011 129.52C87.6611 130.54 86.7011 131 85.6411 131C83.8011 131 82.4011 129.74 82.4011 127.66C82.4011 125.6 83.8011 124.32 85.6411 124.32C86.7011 124.32 87.6611 124.78 88.3011 125.8L90.2211 124.68C89.4011 123.06 87.7411 122.2 85.6611 122.2C82.2811 122.2 79.8811 124.46 79.8811 127.66C79.8811 130.86 82.2811 133.14 85.6611 133.14ZM94.7622 123.88V122.32H92.3822V133H94.8822V127.82C94.8822 125.64 96.0822 124.52 97.9822 124.52C98.1622 124.52 98.3422 124.54 98.5622 124.58V122.2C96.7822 122.2 95.4822 122.76 94.7622 123.88ZM110.625 127.72C110.625 124.38 108.345 122.2 105.225 122.2C102.045 122.2 99.7053 124.48 99.7053 127.66C99.7053 130.84 102.025 133.14 105.605 133.14C107.445 133.14 108.945 132.54 109.905 131.4L108.565 129.86C107.805 130.64 106.865 131.02 105.665 131.02C103.805 131.02 102.505 130.02 102.205 128.46H110.585C110.605 128.22 110.625 127.92 110.625 127.72ZM105.225 124.2C106.865 124.2 108.045 125.26 108.245 126.8H102.185C102.425 125.24 103.605 124.2 105.225 124.2ZM123.067 127.72C123.067 124.38 120.787 122.2 117.667 122.2C114.487 122.2 112.147 124.48 112.147 127.66C112.147 130.84 114.467 133.14 118.047 133.14C119.887 133.14 121.387 132.54 122.347 131.4L121.007 129.86C120.247 130.64 119.307 131.02 118.107 131.02C116.247 131.02 114.947 130.02 114.647 128.46H123.027C123.047 128.22 123.067 127.92 123.067 127.72ZM117.667 124.2C119.307 124.2 120.487 125.26 120.687 126.8H114.627C114.867 125.24 116.047 124.2 117.667 124.2ZM131.528 122.2C129.968 122.2 128.668 122.72 127.848 123.7V122.32H125.468V133H127.968V127.6C127.968 125.46 129.168 124.38 130.948 124.38C132.548 124.38 133.488 125.3 133.488 127.2V133H135.988V126.88C135.988 123.66 134.088 122.2 131.528 122.2Z" fill="black"/>
</svg>
