<svg width="359" height="184" viewBox="0 0 359 184" fill="none" xmlns="http://www.w3.org/2000/svg">
<path d="M20 164L20 28C20 21.3726 25.3726 16 32 16L148 16" stroke="#181618" stroke-width="2" stroke-linecap="round"/>
<path d="M147 16L132 16" stroke="#181618" stroke-width="2" stroke-linecap="round"/>
<path d="M140 24L148 16L140 8" stroke="#181618" stroke-width="2" stroke-linecap="round" stroke-linejoin="round"/>
<rect opacity="0.4" x="40" y="184" width="40" height="40" rx="20" transform="rotate(180 40 184)" fill="#407BFF"/>
<rect x="39" y="183" width="38" height="38" rx="19" transform="rotate(180 39 183)" stroke="#407BFF" stroke-width="2"/>
<circle cx="20" cy="164" r="4.5" transform="rotate(180 20 164)" fill="white" stroke="#160E16" stroke-width="3"/>
<path d="M190.4 9H187.84L183.7 15.82L179.6 9H176.82L182.32 18.1V23H184.92V18.06L190.4 9ZM195.471 23.14C198.791 23.14 201.171 20.86 201.171 17.66C201.171 14.46 198.791 12.2 195.471 12.2C192.191 12.2 189.791 14.46 189.791 17.66C189.791 20.86 192.191 23.14 195.471 23.14ZM195.471 21C193.671 21 192.311 19.7 192.311 17.66C192.311 15.62 193.671 14.32 195.471 14.32C197.291 14.32 198.651 15.62 198.651 17.66C198.651 19.7 197.291 21 195.471 21ZM211.402 12.32V17.72C211.402 19.86 210.222 20.94 208.482 20.94C206.902 20.94 205.982 20.02 205.982 18.08V12.32H203.482V18.42C203.482 21.64 205.342 23.14 208.082 23.14C209.462 23.14 210.722 22.62 211.522 21.64V23H213.902V12.32H211.402ZM219.555 13.88V12.32H217.175V23H219.675V17.82C219.675 15.64 220.875 14.52 222.775 14.52C222.955 14.52 223.135 14.54 223.355 14.58V12.2C221.575 12.2 220.275 12.76 219.555 13.88ZM246.661 23L246.641 9H244.501L239.041 18.28L233.481 9H231.341V23H233.821V13.84L238.421 21.4H239.581L244.181 13.72L244.201 23H246.661ZM251.463 10.56C252.403 10.56 253.063 9.88 253.063 9C253.063 8.18 252.383 7.56 251.463 7.56C250.543 7.56 249.863 8.22 249.863 9.06C249.863 9.9 250.543 10.56 251.463 10.56ZM250.203 23H252.703V12.32H250.203V23ZM255.984 23H258.484V8.16H255.984V23ZM271.805 17.72C271.805 14.38 269.525 12.2 266.405 12.2C263.225 12.2 260.885 14.48 260.885 17.66C260.885 20.84 263.205 23.14 266.785 23.14C268.625 23.14 270.125 22.54 271.085 21.4L269.745 19.86C268.985 20.64 268.045 21.02 266.845 21.02C264.985 21.02 263.685 20.02 263.385 18.46H271.765C271.785 18.22 271.805 17.92 271.805 17.72ZM266.405 14.2C268.045 14.2 269.225 15.26 269.425 16.8H263.365C263.605 15.24 264.785 14.2 266.405 14.2ZM277.506 23.14C280.506 23.14 282.346 21.84 282.346 19.84C282.346 15.66 275.746 17.58 275.746 15.42C275.746 14.72 276.466 14.22 277.986 14.22C279.006 14.22 280.026 14.42 281.046 15.02L282.006 13.12C281.046 12.54 279.426 12.2 278.006 12.2C275.126 12.2 273.306 13.52 273.306 15.54C273.306 19.8 279.906 17.88 279.906 19.92C279.906 20.66 279.246 21.1 277.666 21.1C276.326 21.1 274.886 20.66 273.946 20.04L272.986 21.94C273.946 22.62 275.726 23.14 277.506 23.14ZM294.607 23.2C298.447 23.2 300.267 21.28 300.267 19.04C300.267 13.9 291.967 15.84 291.967 12.86C291.967 11.8 292.847 10.96 295.007 10.96C296.227 10.96 297.607 11.32 298.867 12.06L299.687 10.04C298.467 9.24 296.707 8.8 295.027 8.8C291.187 8.8 289.387 10.72 289.387 12.98C289.387 18.18 297.707 16.2 297.707 19.22C297.707 20.26 296.787 21.04 294.607 21.04C292.887 21.04 291.107 20.4 289.987 19.5L289.087 21.52C290.247 22.52 292.427 23.2 294.607 23.2ZM308.325 20.64C307.945 20.94 307.445 21.08 306.925 21.08C305.965 21.08 305.445 20.52 305.445 19.48V14.4H308.305V12.4H305.445V9.96H302.945V12.4H301.185V14.4H302.945V19.54C302.945 21.9 304.285 23.14 306.625 23.14C307.525 23.14 308.425 22.9 309.025 22.42L308.325 20.64ZM315.53 23.14C318.85 23.14 321.23 20.86 321.23 17.66C321.23 14.46 318.85 12.2 315.53 12.2C312.25 12.2 309.85 14.46 309.85 17.66C309.85 20.86 312.25 23.14 315.53 23.14ZM315.53 21C313.73 21 312.37 19.7 312.37 17.66C312.37 15.62 313.73 14.32 315.53 14.32C317.35 14.32 318.71 15.62 318.71 17.66C318.71 19.7 317.35 21 315.53 21ZM329.68 12.2C328.12 12.2 326.82 12.72 326 13.7V12.32H323.62V23H326.12V17.6C326.12 15.46 327.32 14.38 329.1 14.38C330.7 14.38 331.64 15.3 331.64 17.2V23H334.14V16.88C334.14 13.66 332.24 12.2 329.68 12.2ZM347.45 17.72C347.45 14.38 345.17 12.2 342.05 12.2C338.87 12.2 336.53 14.48 336.53 17.66C336.53 20.84 338.85 23.14 342.43 23.14C344.27 23.14 345.77 22.54 346.73 21.4L345.39 19.86C344.63 20.64 343.69 21.02 342.49 21.02C340.63 21.02 339.33 20.02 339.03 18.46H347.41C347.43 18.22 347.45 17.92 347.45 17.72ZM342.05 14.2C343.69 14.2 344.87 15.26 345.07 16.8H339.01C339.25 15.24 340.43 14.2 342.05 14.2ZM353.151 23.14C356.151 23.14 357.991 21.84 357.991 19.84C357.991 15.66 351.391 17.58 351.391 15.42C351.391 14.72 352.111 14.22 353.631 14.22C354.651 14.22 355.671 14.42 356.691 15.02L357.651 13.12C356.691 12.54 355.071 12.2 353.651 12.2C350.771 12.2 348.951 13.52 348.951 15.54C348.951 19.8 355.551 17.88 355.551 19.92C355.551 20.66 354.891 21.1 353.311 21.1C351.971 21.1 350.531 20.66 349.591 20.04L348.631 21.94C349.591 22.62 351.371 23.14 353.151 23.14Z" fill="black"/>
</svg>
