<svg width="717" height="405" viewBox="0 0 717 405" fill="none" xmlns="http://www.w3.org/2000/svg">
<g filter="url(#filter0_d_999_1265)">
<rect x="6" y="6" width="705" height="393" rx="6" fill="white"/>
</g>
<path d="M6 12C6 8.68629 8.68629 6 12 6H705C708.314 6 711 8.68629 711 12V222H6V12Z" fill="#407BFF"/>
<mask id="mask0_999_1265" style="mask-type:alpha" maskUnits="userSpaceOnUse" x="527" y="47" width="184" height="176">
<rect x="527" y="47" width="183.67" height="176" rx="15" fill="white"/>
</mask>
<g mask="url(#mask0_999_1265)">
<ellipse cx="635.991" cy="221.587" rx="102.532" ry="9.48624" fill="#CBCCFE"/>
<path d="M710.891 217.501H612.246V192.81H710.891C711.948 192.81 712.805 193.666 712.805 194.721V215.59C712.805 216.646 711.948 217.501 710.891 217.501Z" fill="#407BFF"/>
<path opacity="0.2" d="M710.891 217.501H612.246V192.81H710.891C711.948 192.81 712.805 193.666 712.805 194.721V215.59C712.805 216.646 711.948 217.501 710.891 217.501Z" fill="black"/>
<rect opacity="0.2" x="651.523" y="217.501" width="15.0923" height="24.6907" transform="rotate(180 651.523 217.501)" fill="black"/>
<rect opacity="0.2" x="665.658" y="217.501" width="7.65223" height="24.6907" transform="rotate(180 665.658 217.501)" fill="black"/>
<path d="M579.569 192.81H612.241V217.501H579.569C578.507 217.501 577.645 216.641 577.645 215.58V194.731C577.645 193.67 578.507 192.81 579.569 192.81V192.81Z" fill="#407BFF"/>
<path opacity="0.9" d="M577.645 195.464H606.226C607.613 195.464 608.738 196.587 608.738 197.971V212.335C608.738 213 608.473 213.637 608.002 214.108C607.531 214.578 606.892 214.842 606.226 214.842H577.645V195.464Z" fill="white"/>
<ellipse opacity="0.2" cx="698.981" cy="205.156" rx="7.07499" ry="7.06151" fill="black"/>
<path d="M718.035 192.791H619.36V174.871H718.035C719.092 174.871 719.949 175.726 719.949 176.781V190.9C719.938 191.947 719.085 192.791 718.035 192.791Z" fill="#263238"/>
<path opacity="0.2" d="M718.035 192.791H619.36V174.871H718.035C719.092 174.871 719.949 175.726 719.949 176.781V190.9C719.938 191.947 719.085 192.791 718.035 192.791Z" fill="black"/>
<path d="M586.709 174.91H619.38V192.83H586.709C585.646 192.83 584.784 191.97 584.784 190.909V176.811C584.795 175.758 585.654 174.91 586.709 174.91V174.91Z" fill="#263238"/>
<path opacity="0.9" d="M584.77 177.545H613.385C614.772 177.545 615.897 178.667 615.897 180.051V187.66C615.899 188.326 615.636 188.966 615.165 189.438C614.693 189.91 614.053 190.176 613.385 190.176H584.77V177.545Z" fill="white"/>
<rect opacity="0.3" x="711.123" y="188.565" width="73.1575" height="9.43505" rx="4.19" transform="rotate(180 711.123 188.565)" fill="#407BFF"/>
<rect opacity="0.3" x="625.744" y="192.81" width="2.61982" height="17.9197" transform="rotate(180 625.744 192.81)" fill="#407BFF"/>
<rect opacity="0.3" x="630.525" y="192.81" width="2.61982" height="17.9197" transform="rotate(180 630.525 192.81)" fill="#407BFF"/>
<path d="M707.112 174.891H608.471V156.385H707.112C708.169 156.385 709.026 157.24 709.026 158.296V172.98C709.026 174.035 708.169 174.891 707.112 174.891Z" fill="#407BFF"/>
<path opacity="0.3" d="M707.112 174.891H608.471V156.385H707.112C708.169 156.385 709.026 157.24 709.026 158.296V172.98C709.026 174.035 708.169 174.891 707.112 174.891Z" fill="black"/>
<rect opacity="0.9" x="666.906" y="174.891" width="34.25" height="18.486" transform="rotate(180 666.906 174.891)" fill="white"/>
<rect opacity="0.9" x="698.986" y="174.891" width="17.3668" height="18.486" transform="rotate(180 698.986 174.891)" fill="white"/>
<path d="M575.8 156.405H608.452V174.91H575.8C575.29 174.91 574.8 174.708 574.44 174.348C574.079 173.988 573.876 173.499 573.876 172.99V158.325C573.876 157.265 574.737 156.405 575.8 156.405V156.405Z" fill="#407BFF"/>
<path opacity="0.9" d="M573.876 159.054H602.457C603.844 159.054 604.968 160.176 604.968 161.56V169.73C604.968 171.114 603.844 172.236 602.457 172.236H573.876V159.054Z" fill="white"/>
<path d="M714.246 156.405H615.606V144.143H714.246C715.303 144.143 716.16 144.999 716.16 146.054V154.494C716.16 155.549 715.303 156.405 714.246 156.405Z" fill="#407BFF"/>
<path opacity="0.3" d="M714.246 156.405H615.606V144.143H714.246C715.303 144.143 716.16 144.999 716.16 146.054V154.494C716.16 155.549 715.303 156.405 714.246 156.405Z" fill="white"/>
<path opacity="0.2" d="M714.246 156.405H615.606V144.143H714.246C715.303 144.143 716.16 144.999 716.16 146.054V154.494C716.16 155.549 715.303 156.405 714.246 156.405Z" fill="black"/>
<path d="M582.934 144.143H615.606V156.405H582.934C581.872 156.405 581.01 155.545 581.01 154.484V146.064C581.01 145.003 581.872 144.143 582.934 144.143Z" fill="#407BFF"/>
<path opacity="0.3" d="M582.934 144.143H615.606V156.405H582.934C581.872 156.405 581.01 155.545 581.01 154.484V146.064C581.01 145.003 581.872 144.143 582.934 144.143Z" fill="white"/>
<path opacity="0.9" d="M581.01 146.797H609.586C610.973 146.797 612.098 147.92 612.098 149.304V151.274C612.074 152.641 610.956 153.736 609.586 153.736H581.01V146.797Z" fill="white"/>
<rect opacity="0.4" x="669.142" y="153.174" width="44.7096" height="5.79596" transform="rotate(180 669.142 153.174)" fill="#263238"/>
<path d="M632.578 140.085H646.683V144.148H632.578C632.403 144.148 632.262 144.007 632.262 143.833V140.386C632.27 140.218 632.409 140.085 632.578 140.085Z" fill="#407BFF"/>
<path opacity="0.2" d="M632.578 140.085H646.683V144.148H632.578C632.403 144.148 632.262 144.007 632.262 143.833V140.386C632.27 140.218 632.409 140.085 632.578 140.085Z" fill="black"/>
<path d="M652.061 144.153H646.703V140.091H652.081C652.255 140.091 652.396 140.232 652.396 140.406V143.853C652.393 143.937 652.355 144.017 652.292 144.073C652.229 144.13 652.146 144.159 652.061 144.153Z" fill="#407BFF"/>
<path opacity="0.9" d="M652.382 143.715H647.68C647.451 143.715 647.265 143.53 647.265 143.301V140.938C647.265 140.709 647.451 140.524 647.68 140.524H652.382V143.715V143.715Z" fill="white"/>
<path d="M631.403 137.136H645.509V140.09H631.403C631.229 140.09 631.088 139.949 631.088 139.775V137.456C631.086 137.371 631.119 137.29 631.178 137.23C631.238 137.17 631.319 137.136 631.403 137.136Z" fill="#263238"/>
<path opacity="0.2" d="M631.403 137.136H645.509V140.09H631.403C631.229 140.09 631.088 139.949 631.088 139.775V137.456C631.086 137.371 631.119 137.29 631.178 137.23C631.238 137.17 631.319 137.136 631.403 137.136Z" fill="black"/>
<path d="M650.887 140.09H645.509V137.136H650.887C651.061 137.136 651.203 137.277 651.203 137.451V139.77C651.204 139.855 651.171 139.936 651.112 139.996C651.053 140.056 650.971 140.09 650.887 140.09Z" fill="#263238"/>
<path opacity="0.9" d="M651.208 139.652H646.506C646.396 139.652 646.29 139.608 646.213 139.531C646.135 139.453 646.091 139.348 646.091 139.238V137.987C646.091 137.759 646.277 137.574 646.506 137.574H651.208V139.652V139.652Z" fill="white"/>
<path d="M633.199 134.098H647.305V137.141H633.199C633.025 137.141 632.884 137 632.884 136.826V134.413C632.884 134.329 632.917 134.249 632.976 134.19C633.035 134.131 633.116 134.098 633.199 134.098Z" fill="#407BFF"/>
<path opacity="0.3" d="M633.199 134.098H647.305V137.141H633.199C633.025 137.141 632.884 137 632.884 136.826V134.413C632.884 134.329 632.917 134.249 632.976 134.19C633.035 134.131 633.116 134.098 633.199 134.098Z" fill="black"/>
<path d="M652.683 137.136H647.305V134.092H652.683C652.857 134.092 652.998 134.234 652.998 134.408V136.816C653 136.9 652.967 136.982 652.908 137.042C652.848 137.102 652.767 137.136 652.683 137.136Z" fill="#407BFF"/>
<path opacity="0.9" d="M652.998 136.702H648.296C648.068 136.702 647.882 136.517 647.882 136.289V134.944C647.882 134.716 648.068 134.531 648.296 134.531H652.998V136.702Z" fill="white"/>
<path d="M632.025 132.068H646.131V134.087H632.025C631.851 134.087 631.709 133.946 631.709 133.772V132.384C631.709 132.209 631.851 132.068 632.025 132.068Z" fill="#407BFF"/>
<path opacity="0.3" d="M632.025 132.068H646.131V134.087H632.025C631.851 134.087 631.709 133.946 631.709 133.772V132.384C631.709 132.209 631.851 132.068 632.025 132.068Z" fill="white"/>
<path opacity="0.2" d="M632.025 132.068H646.131V134.087H632.025C631.851 134.087 631.709 133.946 631.709 133.772V132.384C631.709 132.209 631.851 132.068 632.025 132.068Z" fill="black"/>
<path d="M651.513 134.107H646.136V132.088H651.513C651.688 132.088 651.829 132.23 651.829 132.404V133.787C651.83 133.872 651.798 133.953 651.738 134.013C651.679 134.074 651.598 134.107 651.513 134.107Z" fill="#407BFF"/>
<path opacity="0.3" d="M651.513 134.107H646.136V132.088H651.513C651.688 132.088 651.829 132.23 651.829 132.404V133.787C651.83 133.872 651.798 133.953 651.738 134.013C651.679 134.074 651.598 134.107 651.513 134.107Z" fill="white"/>
<path opacity="0.9" d="M651.824 133.659H647.122C646.893 133.659 646.708 133.474 646.708 133.246V132.925C646.708 132.697 646.893 132.512 647.122 132.512H651.824V133.654V133.659Z" fill="white"/>
<path d="M631.403 129.114H645.509V132.068H631.403C631.229 132.068 631.088 131.927 631.088 131.753V129.434C631.086 129.349 631.119 129.268 631.178 129.208C631.238 129.148 631.319 129.114 631.403 129.114Z" fill="#263238"/>
<path opacity="0.2" d="M631.403 129.114H645.509V132.068H631.403C631.229 132.068 631.088 131.927 631.088 131.753V129.434C631.086 129.349 631.119 129.268 631.178 129.208C631.238 129.148 631.319 129.114 631.403 129.114Z" fill="black"/>
<path d="M649.096 132.093H645.524V129.138H649.111C649.285 129.138 649.426 129.279 649.426 129.453V131.773C649.428 131.86 649.393 131.944 649.331 132.004C649.268 132.065 649.183 132.097 649.096 132.093Z" fill="#263238"/>
<path opacity="0.9" d="M649.417 131.64H646.506C646.277 131.64 646.091 131.455 646.091 131.226V129.976C646.091 129.747 646.277 129.562 646.506 129.562H649.417V131.64V131.64Z" fill="white"/>
<path d="M633.199 126.085H647.305V129.114H633.199C633.025 129.114 632.884 128.973 632.884 128.799V126.386C632.891 126.218 633.031 126.085 633.199 126.085Z" fill="#407BFF"/>
<path opacity="0.3" d="M633.199 126.085H647.305V129.114H633.199C633.025 129.114 632.884 128.973 632.884 128.799V126.386C632.891 126.218 633.031 126.085 633.199 126.085Z" fill="black"/>
<path d="M650.892 129.128H647.305V126.1H650.892C651.066 126.1 651.208 126.241 651.208 126.415V128.823C651.202 128.993 651.062 129.129 650.892 129.128Z" fill="#407BFF"/>
<path opacity="0.9" d="M651.208 128.69H648.297C648.068 128.69 647.882 128.505 647.882 128.277V126.932C647.882 126.704 648.068 126.519 648.297 126.519H651.208V128.69V128.69Z" fill="white"/>
<path d="M632.025 124.071H646.131V126.09H632.025C631.851 126.09 631.709 125.949 631.709 125.775V124.386C631.709 124.212 631.851 124.071 632.025 124.071Z" fill="#407BFF"/>
<path opacity="0.3" d="M632.025 124.071H646.131V126.09H632.025C631.851 126.09 631.709 125.949 631.709 125.775V124.386C631.709 124.212 631.851 124.071 632.025 124.071Z" fill="white"/>
<path opacity="0.2" d="M632.025 124.071H646.131V126.09H632.025C631.851 126.09 631.709 125.949 631.709 125.775V124.386C631.709 124.212 631.851 124.071 632.025 124.071Z" fill="black"/>
<path d="M649.722 126.085H646.135V124.066H649.722C649.897 124.066 650.038 124.208 650.038 124.382V125.77C650.038 125.944 649.897 126.085 649.722 126.085Z" fill="#407BFF"/>
<path opacity="0.3" d="M649.722 126.085H646.135V124.066H649.722C649.897 124.066 650.038 124.208 650.038 124.382V125.77C650.038 125.944 649.897 126.085 649.722 126.085Z" fill="white"/>
<path opacity="0.9" d="M650.033 125.652H647.122C646.893 125.652 646.708 125.467 646.708 125.238V124.918C646.708 124.69 646.893 124.504 647.122 124.504H650.033V125.647V125.652Z" fill="white"/>
<path d="M573.13 177.789L569.789 176.094L572.503 167.697L575.844 169.392L573.13 177.789Z" fill="#FFC3BD"/>
<path d="M570.719 174.585L574.812 175.418C574.957 175.443 575.055 175.576 575.034 175.718L574.529 178.9C574.453 179.242 574.108 179.46 573.756 179.391C572.336 179.077 571.669 178.856 569.87 178.488C568.764 178.263 564.939 177.508 563.463 177.017C561.988 176.527 562.528 175.119 563.2 175.203C566.232 175.566 568.824 175.237 570.022 174.663C570.238 174.561 570.484 174.533 570.719 174.585Z" fill="#263238"/>
<path opacity="0.2" d="M575.844 169.402L572.538 167.697L571 172.542L574.462 173.752L575.844 169.402Z" fill="black"/>
<path d="M609.331 127.734C609.331 127.734 580.981 130.484 578.612 140.827C575.2 155.686 570.596 169.807 570.596 169.807L576.939 170.927C577.911 166.696 585.14 151.857 588.531 141.855C596.211 140.706 616.74 145.072 619.816 139.221C621.342 136.249 622.179 132.971 622.266 129.631L609.331 127.734Z" fill="#407BFF"/>
<path opacity="0.3" d="M609.331 127.734C609.331 127.734 580.981 130.484 578.612 140.827C575.2 155.686 570.596 169.807 570.596 169.807L576.939 170.927C577.911 166.696 585.14 151.857 588.531 141.855C596.211 140.706 616.74 145.072 619.816 139.221C621.342 136.249 622.179 132.971 622.266 129.631L609.331 127.734Z" fill="black"/>
<path d="M577.569 173.349L570.193 170.67L570.547 167.697L578.266 169.736L577.569 173.349Z" fill="#407BFF"/>
<path fill-rule="evenodd" clip-rule="evenodd" d="M570.11 174.958C569.807 174.976 569.503 174.95 569.205 174.88C568.99 174.851 568.791 174.729 568.643 174.535C568.556 174.365 568.556 174.149 568.643 173.978C568.683 173.862 568.768 173.778 568.87 173.756C569.277 173.689 570.092 174.685 570.183 174.802C570.196 174.834 570.196 174.871 570.183 174.903C570.169 174.936 570.141 174.958 570.11 174.958ZM568.756 174.401C568.879 174.63 569.304 174.769 569.911 174.769C569.585 174.374 569.101 173.895 568.861 173.945C568.812 173.955 568.771 173.998 568.756 174.056C568.704 174.162 568.704 174.295 568.756 174.401Z" fill="#407BFF"/>
<path fill-rule="evenodd" clip-rule="evenodd" d="M570.415 174.963H570.378L570.313 174.936C570.026 174.669 569.673 173.874 569.826 173.529C569.881 173.401 570.018 173.328 570.156 173.354C570.281 173.36 570.397 173.425 570.466 173.529C570.72 173.876 570.534 174.632 570.48 174.849C570.472 174.883 570.466 174.903 570.466 174.908C570.46 174.934 570.441 174.955 570.415 174.963ZM570.355 173.625C570.32 173.572 570.265 173.536 570.202 173.524L570.156 173.519C570.04 173.51 569.984 173.556 569.984 173.598C569.956 174.007 570.089 174.411 570.355 174.724C570.474 174.367 570.474 173.982 570.355 173.625Z" fill="#407BFF"/>
<path d="M612.578 101.681C612.408 103.57 612.139 105.348 611.849 107.171C611.56 108.995 611.181 110.793 610.716 112.606C610.264 114.464 609.677 116.286 608.96 118.056C608.573 119.022 608.104 119.952 607.557 120.834C607.248 121.338 606.896 121.812 606.504 122.252C606.033 122.792 605.483 123.254 604.872 123.623L604.663 123.745L604.548 123.785C603.464 124.163 602.295 124.202 601.189 123.897C600.368 123.683 599.577 123.366 598.834 122.952C598.161 122.579 597.517 122.154 596.907 121.683C596.608 121.454 596.328 121.205 596.049 120.956C595.759 120.707 595.483 120.443 595.22 120.164L596.787 117.853C597.371 118.046 598 118.295 598.604 118.478C599.208 118.66 599.807 118.859 600.381 118.986C600.894 119.116 601.419 119.191 601.948 119.209C602.392 119.209 602.706 119.087 602.626 119.052L602.302 119.214C602.638 118.889 602.917 118.508 603.126 118.087C603.473 117.433 603.771 116.754 604.019 116.055C604.557 114.492 605.002 112.898 605.351 111.28C605.716 109.619 606.03 107.928 606.305 106.201C606.579 104.474 606.804 102.747 607.033 101.091L612.578 101.681Z" fill="#FFC3BD"/>
<path d="M607.839 98.9097C604.312 101.978 604.507 109.443 604.507 109.443L613.826 112.798C615.8 109.73 616.769 103.87 616.595 101.354C616.323 97.4881 612.022 95.2586 607.839 98.9097Z" fill="#263238"/>
<path opacity="0.2" d="M616.603 101.516C614.945 100.715 612.679 100.97 610.438 102.941C608.41 104.722 607.625 108.004 607.331 110.429L613.86 112.798C615.777 109.786 616.735 104.094 616.603 101.516Z" fill="black"/>
<path d="M560.411 168.504L559.294 164.984L567.062 160.834L568.174 164.354L560.411 168.504Z" fill="#FFC3BD"/>
<path d="M559.622 165.015L562.444 168.064C562.495 168.112 562.523 168.178 562.523 168.247C562.523 168.316 562.495 168.382 562.444 168.431L560.101 170.756C559.971 170.872 559.8 170.933 559.624 170.926C559.448 170.918 559.282 170.843 559.163 170.716C558.2 169.641 557.793 169.075 556.55 167.742C555.786 166.919 553.101 164.197 552.046 163.056C550.992 161.916 552.179 160.934 552.729 161.326C555.205 163.076 557.686 164.479 559.016 164.702C559.247 164.74 559.46 164.85 559.622 165.015Z" fill="#263238"/>
<path opacity="0.2" d="M568.174 164.456L567.049 160.834L561.312 163.952L563.702 166.89L568.174 164.456Z" fill="black"/>
<path d="M616.052 128.945C616.052 128.945 596.682 131.538 592.688 136.834C585.734 146.054 563.734 161.269 563.734 161.269L565.731 167.697C565.731 167.697 595.714 155.066 601.045 144.504C610.84 143.751 626.775 146.972 629.286 140.898C630.958 136.854 630.139 130.815 630.139 130.815L616.052 128.945Z" fill="#407BFF"/>
<path opacity="0.2" d="M616.052 128.945C616.052 128.945 596.682 131.538 592.688 136.834C585.734 146.054 563.734 161.269 563.734 161.269L565.731 167.697C565.731 167.697 595.714 155.066 601.045 144.504C610.84 143.751 626.775 146.972 629.286 140.898C630.958 136.854 630.139 130.815 630.139 130.815L616.052 128.945Z" fill="black"/>
<path d="M566 168.908L561.716 161.907L564.455 159.624L568.578 167.159L566 168.908Z" fill="#407BFF"/>
<path fill-rule="evenodd" clip-rule="evenodd" d="M559.157 164.858C558.884 164.687 558.631 164.489 558.403 164.268C558.215 164.108 558.101 163.889 558.083 163.654C558.102 163.499 558.206 163.364 558.358 163.294C558.456 163.244 558.575 163.244 558.673 163.294C559.107 163.493 559.292 164.651 559.292 164.78C559.299 164.811 559.283 164.843 559.252 164.858C559.224 164.876 559.186 164.876 559.157 164.858ZM558.258 163.7C558.243 163.908 558.553 164.249 559.092 164.623V164.618C559.007 164.157 558.827 163.548 558.598 163.47C558.55 163.444 558.491 163.444 558.443 163.47C558.341 163.51 558.27 163.598 558.258 163.7Z" fill="#407BFF"/>
<path fill-rule="evenodd" clip-rule="evenodd" d="M558.974 164.858H558.933C558.921 164.844 558.913 164.827 558.91 164.809C558.818 164.4 559.048 163.499 559.457 163.299C559.609 163.227 559.799 163.249 559.923 163.353C560.039 163.44 560.105 163.567 560.101 163.699C560.078 164.2 559.112 164.858 559.066 164.858C559.039 164.876 559.001 164.876 558.974 164.858ZM559.9 163.699C559.904 163.632 559.877 163.568 559.825 163.518L559.79 163.489C559.731 163.432 559.633 163.418 559.555 163.455C559.227 163.785 559.06 164.208 559.089 164.639C559.393 164.42 559.9 164.001 559.9 163.699Z" fill="#407BFF"/>
<path d="M597.642 118.438L594.783 115.624L592.798 119.588C592.798 119.588 596.271 121.526 597.141 120.639L597.642 118.438Z" fill="#FFC3BD"/>
<path d="M590.907 115.624L590.376 118.929L592.774 119.66L594.817 115.654L590.907 115.624Z" fill="#FFC3BD"/>
<path d="M629.687 96.9619C629.321 95.9866 628.668 95.0213 627.633 95.0363C627.42 95.0363 626.149 95.0363 625.921 95.0663C624.733 95.0963 623.248 95.1764 621.813 95.3614C619.064 95.6812 616.336 96.1605 613.642 96.7969C612.405 97.137 611.217 97.5621 610.267 97.9272H610.232C609.123 98.3652 608.437 99.4954 608.554 100.693C609.049 105.98 610.277 120.659 609.544 128.262L629.836 130.963C631.053 127.051 631.538 118.094 631.548 110.791C631.588 106.405 631.197 100.948 629.687 96.9619Z" fill="#263238"/>
<path opacity="0.2" d="M631.852 106.743L631.439 106.773L628.786 109.019L626.042 118.267L616.615 119.879C618.905 121.012 625.567 121.241 629.506 120.218C630.83 119.863 631.764 118.706 631.811 117.363C631.908 115.053 631.954 112.707 631.954 110.506C631.954 109.313 631.929 108.04 631.852 106.743Z" fill="black"/>
<path d="M598.45 109.649C598.45 109.649 600.298 108.582 603.764 109.617C605.695 110.256 607.776 110.194 609.668 109.441L610.963 111.968L599.187 112.394L598.45 109.649Z" fill="#407BFF"/>
<path opacity="0.8" d="M598.45 109.649C598.45 109.649 600.298 108.582 603.764 109.617C605.695 110.256 607.776 110.194 609.668 109.441L610.963 111.968L599.187 112.394L598.45 109.649Z" fill="white"/>
<path d="M598.521 109.714C598.521 109.714 598.443 108.956 596.193 108.878C591.665 108.726 589.755 107.55 589.755 107.55L589.569 108.736L599.257 112.394L598.521 109.714Z" fill="#407BFF"/>
<path opacity="0.8" d="M598.521 109.714C598.521 109.714 598.443 108.956 596.193 108.878C591.665 108.726 589.755 107.55 589.755 107.55L589.569 108.736L599.257 112.394L598.521 109.714Z" fill="white"/>
<path d="M602.487 126.523L594.243 124.176C594.034 124.11 593.871 123.945 593.808 123.736L589.59 108.481C589.542 108.337 589.579 108.178 589.686 108.071C589.794 107.964 589.952 107.927 590.096 107.975L597.95 110.216L602.487 126.523Z" fill="#407BFF"/>
<path d="M614.959 127.326L604.158 126.723L599.661 110.376L610.613 110.989C610.866 111.011 611.08 111.189 611.148 111.435L615.378 126.799C615.427 126.928 615.405 127.075 615.319 127.183C615.233 127.292 615.095 127.346 614.959 127.326Z" fill="#407BFF"/>
<path d="M602.124 126.814L604.101 126.926L599.619 110.488L597.642 110.376L602.124 126.814Z" fill="#407BFF"/>
<path opacity="0.3" d="M602.124 126.814L604.101 126.926L599.619 110.488L597.642 110.376L602.124 126.814Z" fill="black"/>
<path d="M630.778 100.284C630.884 101.011 630.954 101.627 631.005 102.304C631.055 102.981 631.09 103.607 631.12 104.263C631.165 105.566 631.155 106.874 631.075 108.186C630.947 110.881 630.458 113.545 629.622 116.109C629.622 116.154 629.532 116.371 629.471 116.533C629.401 116.695 629.322 116.854 629.235 117.008C629.075 117.29 628.886 117.556 628.672 117.8C628.313 118.206 627.894 118.555 627.43 118.835C626.718 119.262 625.95 119.588 625.148 119.805C623.814 120.158 622.445 120.367 621.066 120.426C618.498 120.547 615.924 120.403 613.385 119.997L613.516 117.205C615.878 116.988 618.226 116.651 620.554 116.195C621.618 115.993 622.661 115.694 623.67 115.301C624.045 115.158 624.397 114.963 624.716 114.72C624.822 114.629 624.872 114.554 624.862 114.544C624.852 114.533 624.837 114.544 624.822 114.579C624.807 114.596 624.793 114.615 624.781 114.634C624.781 114.634 624.751 114.725 624.781 114.634C625.028 113.56 625.212 112.473 625.334 111.378C625.44 110.257 625.515 109.121 625.53 107.969C625.545 106.818 625.53 105.657 625.48 104.495C625.455 103.915 625.425 103.334 625.38 102.758L625.309 101.895L625.234 101.087L630.778 100.284Z" fill="#FFC3BD"/>
<path d="M630.914 95.3786C628.442 93.4866 625.03 93.5427 623.631 98.5252C622.715 101.789 623.204 108.357 623.204 108.357L633.076 108.159C634.18 102.936 633.417 97.2961 630.914 95.3786Z" fill="#263238"/>
<path d="M620.694 86.9634L618.659 89.3711L615.885 92.6535C616.059 93.072 616.204 93.5019 616.319 93.9403C616.818 95.6795 615.246 96.0314 613.825 96.911C613.825 96.911 611.694 99.7511 616.818 98.9217C621.942 98.0923 622.67 95.4031 622.67 95.4031C620.37 93.8297 620.535 89.9693 620.694 86.9634Z" fill="#FFC3BD"/>
<path d="M618.598 98.6694C618.063 98.8234 617.52 98.9433 616.971 99.0285C616.263 99.1596 615.542 99.2032 614.823 99.1586L614.699 99.7779C614.508 99.9132 614.462 100.636 615.67 101.495C616.945 101.23 618.923 100.132 618.598 98.6694Z" fill="#407BFF"/>
<path d="M622.008 94.6328C622.008 94.6328 621.004 97.2173 617.35 98.1634C617.867 99.5329 617.019 101.092 617.019 101.092C617.019 101.092 622.117 99.4134 623.178 97.7352C624.239 96.057 623.784 95.076 623.784 95.076C623.231 94.8101 622.626 94.6591 622.008 94.6328V94.6328Z" fill="#263238"/>
<path d="M614.83 101.091C614.83 101.091 614.863 98.9278 615.467 98.2033C615.151 97.2273 615.319 96.694 615.808 95.8438C614.777 96.0574 613.865 96.6812 613.263 97.5845C612.616 98.7165 613.066 101.121 614.83 101.091Z" fill="#263238"/>
<path opacity="0.2" d="M616.211 92.5751C616.379 92.9818 616.518 93.3996 616.63 93.8256C617.755 93.3811 619.097 91.8424 619.035 90.6016C619.022 90.1911 618.966 89.7833 618.866 89.3853L616.211 92.5751Z" fill="black"/>
<path d="M609.314 81.0584C608.319 83.136 609.175 88.0709 613.891 86.1062C618.608 84.1414 610.932 77.6882 609.314 81.0584Z" fill="#263238"/>
<path d="M619.2 85.363C618.761 86.2711 619.137 88.4298 621.203 87.5736C623.268 86.7174 619.885 83.8893 619.2 85.363Z" fill="#263238"/>
<path d="M619.855 86.8097C619.253 87.5362 619.051 89.6261 621.054 89.3624C623.056 89.0987 620.828 85.6105 619.855 86.8097Z" fill="#263238"/>
<path d="M620.526 81.11C621.367 85.0098 622.045 87.2389 620.683 89.8102C619.793 91.5218 618.022 92.6019 616.083 92.6146C614.144 92.6273 612.358 91.5704 611.446 89.8706C609.664 86.6904 608.585 80.8484 611.887 78.1513C613.311 76.9267 615.283 76.5483 617.064 77.1581C618.845 77.7679 620.164 79.2736 620.526 81.11Z" fill="#FFC3BD"/>
<path d="M619.689 76.652C618.894 73.1603 614.256 74.3732 611.892 76.4846C609.528 78.5959 608.919 80.2555 606.927 81.504C610.604 82.0115 615.811 80.5397 616.787 79.2912C616.782 80.5459 617.373 81.7271 618.376 82.4683C618.307 83.5617 618.307 84.6585 618.376 85.752L620.057 84.8892L622.013 84.0974C624.901 79.1744 623.196 76.1344 619.689 76.652Z" fill="#263238"/>
<path d="M615.536 84.1373C615.472 84.1381 615.416 84.0904 615.407 84.0255C615.399 83.9904 615.406 83.9538 615.426 83.9241C615.446 83.8944 615.476 83.8741 615.511 83.868L620.899 82.9281C620.972 82.9159 621.041 82.9657 621.053 83.0399C621.059 83.075 621.051 83.111 621.03 83.1396C621.01 83.1683 620.979 83.1873 620.944 83.1923L615.556 84.1322L615.536 84.1373Z" fill="white"/>
<path fill-rule="evenodd" clip-rule="evenodd" d="M612.307 84.977C612.67 86.287 613.798 87.3662 614.823 87.3662C615.227 87.3756 615.61 87.1898 615.847 86.8693C616.229 86.2868 616.316 85.5651 616.083 84.9118C615.719 83.6018 614.587 82.5227 613.562 82.5227C613.157 82.5152 612.774 82.7028 612.537 83.0246C612.155 83.605 612.07 84.3265 612.307 84.977ZM612.742 83.1853C612.93 82.9428 613.225 82.8029 613.536 82.8089H613.547C614.459 82.8139 615.473 83.7977 615.806 85.0022C616.012 85.5747 615.942 86.2075 615.617 86.7238C615.434 86.9748 615.132 87.1167 614.817 87.1003C613.905 87.0952 612.891 86.1115 612.558 84.9069C612.35 84.3352 612.418 83.7024 612.742 83.1853Z" fill="white"/>
<path d="M611.918 85.3458C611.893 85.3494 611.867 85.3494 611.842 85.3458C611.808 85.3334 611.784 85.3124 611.775 85.2878C611.766 85.2633 611.772 85.2373 611.794 85.2162C612.048 85.0034 612.467 84.904 612.872 84.9604C612.947 84.9741 612.993 85.0227 612.979 85.0725C612.961 85.1225 612.884 85.1536 612.807 85.1426C612.807 85.1426 612.268 85.0655 612.015 85.3143C611.991 85.3331 611.956 85.3446 611.918 85.3458Z" fill="white"/>
<path d="M622.611 84.2897C622.377 85.2643 621.786 86.1225 620.949 86.7036C619.852 87.4313 618.993 86.5266 619.039 85.2582C619.079 84.1176 619.696 82.3674 620.924 82.1462C622.152 81.9249 622.889 83.0999 622.611 84.2897Z" fill="#FFC3BD"/>
<path d="M614.107 84.5449C614.246 84.8581 614.212 85.2043 614.036 85.3142C613.86 85.4241 613.608 85.2593 613.469 84.9405C613.331 84.6218 613.369 84.2811 613.541 84.1712C613.712 84.0613 613.969 84.2262 614.107 84.5449Z" fill="#263238"/>
<path d="M611.296 85.776C611.423 86.0971 611.375 86.4345 611.189 86.5324C611.003 86.6304 610.749 86.4508 610.627 86.1297C610.505 85.8087 610.554 85.4658 610.739 85.3733C610.925 85.2808 611.174 85.4495 611.296 85.776Z" fill="#263238"/>
<path d="M609.618 84.1137C609.687 84.0954 609.742 84.0454 609.764 83.9805C609.925 83.4911 610.312 83.0987 610.815 82.9154C610.925 82.8822 610.988 82.7709 610.955 82.6651C610.941 82.6141 610.905 82.5709 610.856 82.5457C610.808 82.5205 610.75 82.5156 610.698 82.532C610.051 82.7538 609.554 83.2564 609.361 83.8847C609.342 83.9347 609.345 83.9902 609.371 84.0377C609.396 84.0852 609.441 84.1204 609.495 84.135C609.538 84.1413 609.581 84.1338 609.618 84.1137Z" fill="#263238"/>
<path fill-rule="evenodd" clip-rule="evenodd" d="M609.062 85.9768C609.391 87.1614 610.41 88.1739 611.332 88.1739C611.692 88.1829 612.034 88.0168 612.25 87.7284C612.594 87.194 612.672 86.5311 612.463 85.9313C612.133 84.7467 611.114 83.7342 610.187 83.7342C609.83 83.7257 609.49 83.8897 609.275 84.1746C608.929 84.7104 608.85 85.3755 609.062 85.9768ZM609.477 84.3418C609.641 84.1202 609.901 83.9918 610.177 83.9975L610.182 83.9773C611.003 84.0076 611.91 84.9037 612.209 86.0022C612.393 86.5221 612.332 87.0972 612.042 87.5665C611.876 87.7863 611.613 87.9125 611.338 87.9057C610.511 87.9006 609.609 87.0046 609.31 85.906C609.123 85.3865 609.185 84.8101 609.477 84.3418Z" fill="white"/>
<path d="M612.584 85.3481C612.56 86.2893 612.422 87.2225 612.175 88.123C612.592 88.2423 613.036 88.1493 613.386 87.8693L612.584 85.3481Z" fill="#ED847E"/>
<path d="M613.424 88.8929C614.097 88.684 614.664 88.1817 614.993 87.5019C615.002 87.4782 615.003 87.4513 614.994 87.4273C614.985 87.4034 614.968 87.3842 614.947 87.374C614.903 87.3548 614.853 87.3745 614.831 87.4201C614.465 88.156 613.81 88.6627 613.057 88.7906C613.009 88.8009 612.977 88.85 612.983 88.9031C612.992 88.9551 613.037 88.9892 613.085 88.9798C613.199 88.9599 613.313 88.9308 613.424 88.8929Z" fill="#263238"/>
<path d="M614.499 82.0824C614.528 82.0627 614.552 82.0334 614.568 81.9977C614.625 81.8809 614.594 81.7296 614.499 81.6593C613.951 81.25 613.273 81.1988 612.688 81.5226C612.64 81.5517 612.603 81.6036 612.587 81.6663C612.571 81.729 612.577 81.797 612.603 81.8545C612.654 81.9744 612.776 82.0208 612.874 81.9587C613.336 81.7118 613.868 81.7581 614.296 82.0824C614.358 82.131 614.437 82.131 614.499 82.0824Z" fill="#263238"/>
<path d="M614.425 117.353L611.367 116.027L611.47 120.014C611.47 120.014 614.498 121.264 615 119.615L614.425 117.353Z" fill="#FFC3BD"/>
<path d="M607.734 116.934L608.43 119.816L611.771 120.064L611.665 116.027L607.734 116.934Z" fill="#FFC3BD"/>
</g>
<path opacity="0.231701" d="M6.33223 306.5H710.668" stroke="#8A959E" stroke-linecap="square"/>
<defs>
<filter id="filter0_d_999_1265" x="0" y="0" width="717" height="405" filterUnits="userSpaceOnUse" color-interpolation-filters="sRGB">
<feFlood flood-opacity="0" result="BackgroundImageFix"/>
<feColorMatrix in="SourceAlpha" type="matrix" values="0 0 0 0 0 0 0 0 0 0 0 0 0 0 0 0 0 0 127 0" result="hardAlpha"/>
<feOffset/>
<feGaussianBlur stdDeviation="3"/>
<feComposite in2="hardAlpha" operator="out"/>
<feColorMatrix type="matrix" values="0 0 0 0 0 0 0 0 0 0 0 0 0 0 0 0 0 0 0.25 0"/>
<feBlend mode="normal" in2="BackgroundImageFix" result="effect1_dropShadow_999_1265"/>
<feBlend mode="normal" in="SourceGraphic" in2="effect1_dropShadow_999_1265" result="shape"/>
</filter>
</defs>
</svg>
