<svg width="172" height="36" viewBox="0 0 172 36" fill="none" xmlns="http://www.w3.org/2000/svg">
<path d="M0 4C0 1.79086 1.79086 0 4 0H154.204C155.346 0 156.434 0.488591 157.193 1.34254L169.638 15.3425C170.985 16.8581 170.985 19.1419 169.638 20.6575L157.193 34.6575C156.434 35.5114 155.346 36 154.204 36H4C1.79086 36 0 34.2091 0 32V4Z" fill="#0D8140"/>
<path d="M16.9884 24V12.8H18.7004L23.5964 20.976H22.7004L27.5164 12.8H29.2284L29.2444 24H27.2764L27.2604 15.888H27.6764L23.5804 22.72H22.6524L18.4924 15.888H18.9724V24H16.9884ZM32.0776 24V15.456H34.0776V24H32.0776ZM33.0856 14.048C32.7123 14.048 32.403 13.9307 32.1576 13.696C31.923 13.4613 31.8056 13.1787 31.8056 12.848C31.8056 12.5067 31.923 12.224 32.1576 12C32.403 11.7653 32.7123 11.648 33.0856 11.648C33.459 11.648 33.763 11.76 33.9976 11.984C34.243 12.1973 34.3656 12.4693 34.3656 12.8C34.3656 13.152 34.2483 13.4507 34.0136 13.696C33.779 13.9307 33.4696 14.048 33.0856 14.048ZM36.7026 24V12.128H38.7026V24H36.7026ZM45.3436 24.112C44.3943 24.112 43.5623 23.9253 42.8476 23.552C42.1436 23.168 41.5943 22.6453 41.1996 21.984C40.8156 21.3227 40.6236 20.5707 40.6236 19.728C40.6236 18.8747 40.8103 18.1227 41.1836 17.472C41.5676 16.8107 42.0903 16.2933 42.7516 15.92C43.4236 15.5467 44.1863 15.36 45.0396 15.36C45.8716 15.36 46.613 15.5413 47.2636 15.904C47.9143 16.2667 48.4263 16.7787 48.7996 17.44C49.173 18.1013 49.3596 18.88 49.3596 19.776C49.3596 19.8613 49.3543 19.9573 49.3436 20.064C49.3436 20.1707 49.3383 20.272 49.3276 20.368H42.2076V19.04H48.2716L47.4876 19.456C47.4983 18.9653 47.397 18.5333 47.1836 18.16C46.9703 17.7867 46.677 17.4933 46.3036 17.28C45.941 17.0667 45.5196 16.96 45.0396 16.96C44.549 16.96 44.117 17.0667 43.7436 17.28C43.381 17.4933 43.093 17.792 42.8796 18.176C42.677 18.5493 42.5756 18.992 42.5756 19.504V19.824C42.5756 20.336 42.693 20.7893 42.9276 21.184C43.1623 21.5787 43.493 21.8827 43.9196 22.096C44.3463 22.3093 44.837 22.416 45.3916 22.416C45.8716 22.416 46.3036 22.3413 46.6876 22.192C47.0716 22.0427 47.413 21.808 47.7116 21.488L48.7836 22.72C48.3996 23.168 47.9143 23.5147 47.3276 23.76C46.7516 23.9947 46.0903 24.112 45.3436 24.112ZM53.9208 24.112C53.2061 24.112 52.5181 24.0213 51.8568 23.84C51.2061 23.648 50.6888 23.4187 50.3048 23.152L51.0728 21.632C51.4568 21.8773 51.9154 22.08 52.4488 22.24C52.9821 22.4 53.5154 22.48 54.0488 22.48C54.6781 22.48 55.1314 22.3947 55.4088 22.224C55.6968 22.0533 55.8408 21.824 55.8408 21.536C55.8408 21.3013 55.7448 21.1253 55.5528 21.008C55.3608 20.88 55.1101 20.784 54.8008 20.72C54.4914 20.656 54.1448 20.5973 53.7608 20.544C53.3874 20.4907 53.0088 20.4213 52.6248 20.336C52.2514 20.24 51.9101 20.1067 51.6008 19.936C51.2914 19.7547 51.0408 19.5147 50.8488 19.216C50.6568 18.9173 50.5608 18.5227 50.5608 18.032C50.5608 17.488 50.7154 17.0187 51.0247 16.624C51.3341 16.2187 51.7661 15.9093 52.3207 15.696C52.8861 15.472 53.5528 15.36 54.3208 15.36C54.8968 15.36 55.4781 15.424 56.0648 15.552C56.6514 15.68 57.1368 15.8613 57.5208 16.096L56.7528 17.616C56.3474 17.3707 55.9368 17.2053 55.5208 17.12C55.1154 17.024 54.7101 16.976 54.3048 16.976C53.6968 16.976 53.2434 17.0667 52.9448 17.248C52.6568 17.4293 52.5128 17.6587 52.5128 17.936C52.5128 18.192 52.6088 18.384 52.8008 18.512C52.9928 18.64 53.2434 18.7413 53.5528 18.816C53.8621 18.8907 54.2034 18.9547 54.5768 19.008C54.9608 19.0507 55.3394 19.12 55.7128 19.216C56.0861 19.312 56.4274 19.4453 56.7368 19.616C57.0568 19.776 57.3128 20.0053 57.5048 20.304C57.6968 20.6027 57.7928 20.992 57.7928 21.472C57.7928 22.0053 57.6328 22.4693 57.3128 22.864C57.0034 23.2587 56.5608 23.568 55.9848 23.792C55.4088 24.0053 54.7208 24.112 53.9208 24.112ZM62.1551 24.112C61.4405 24.112 60.7525 24.0213 60.0911 23.84C59.4405 23.648 58.9231 23.4187 58.5391 23.152L59.3071 21.632C59.6911 21.8773 60.1498 22.08 60.6831 22.24C61.2165 22.4 61.7498 22.48 62.2831 22.48C62.9125 22.48 63.3658 22.3947 63.6431 22.224C63.9311 22.0533 64.0751 21.824 64.0751 21.536C64.0751 21.3013 63.9791 21.1253 63.7871 21.008C63.5951 20.88 63.3445 20.784 63.0351 20.72C62.7258 20.656 62.3791 20.5973 61.9951 20.544C61.6218 20.4907 61.2431 20.4213 60.8591 20.336C60.4858 20.24 60.1445 20.1067 59.8351 19.936C59.5258 19.7547 59.2751 19.5147 59.0831 19.216C58.8911 18.9173 58.7951 18.5227 58.7951 18.032C58.7951 17.488 58.9498 17.0187 59.2591 16.624C59.5685 16.2187 60.0005 15.9093 60.5551 15.696C61.1205 15.472 61.7871 15.36 62.5551 15.36C63.1311 15.36 63.7125 15.424 64.2991 15.552C64.8858 15.68 65.3711 15.8613 65.7551 16.096L64.9871 17.616C64.5818 17.3707 64.1711 17.2053 63.7551 17.12C63.3498 17.024 62.9445 16.976 62.5391 16.976C61.9311 16.976 61.4778 17.0667 61.1791 17.248C60.8911 17.4293 60.7471 17.6587 60.7471 17.936C60.7471 18.192 60.8431 18.384 61.0351 18.512C61.2271 18.64 61.4778 18.7413 61.7871 18.816C62.0965 18.8907 62.4378 18.9547 62.8111 19.008C63.1951 19.0507 63.5738 19.12 63.9471 19.216C64.3205 19.312 64.6618 19.4453 64.9711 19.616C65.2911 19.776 65.5471 20.0053 65.7391 20.304C65.9311 20.6027 66.0271 20.992 66.0271 21.472C66.0271 22.0053 65.8671 22.4693 65.5471 22.864C65.2378 23.2587 64.7951 23.568 64.2191 23.792C63.6431 24.0053 62.9551 24.112 62.1551 24.112ZM70.9655 24.112C70.0268 24.112 69.3015 23.872 68.7895 23.392C68.2775 22.9013 68.0215 22.1813 68.0215 21.232V13.568H70.0215V21.184C70.0215 21.5893 70.1228 21.904 70.3255 22.128C70.5388 22.352 70.8322 22.464 71.2055 22.464C71.6535 22.464 72.0268 22.3467 72.3255 22.112L72.8855 23.536C72.6508 23.728 72.3628 23.872 72.0215 23.968C71.6802 24.064 71.3282 24.112 70.9655 24.112ZM66.6135 17.12V15.52H72.3095V17.12H66.6135ZM78.0895 24.112C77.2148 24.112 76.4362 23.9253 75.7535 23.552C75.0708 23.168 74.5322 22.6453 74.1375 21.984C73.7428 21.3227 73.5455 20.5707 73.5455 19.728C73.5455 18.8747 73.7428 18.1227 74.1375 17.472C74.5322 16.8107 75.0708 16.2933 75.7535 15.92C76.4362 15.5467 77.2148 15.36 78.0895 15.36C78.9748 15.36 79.7588 15.5467 80.4415 15.92C81.1348 16.2933 81.6735 16.8053 82.0575 17.456C82.4522 18.1067 82.6495 18.864 82.6495 19.728C82.6495 20.5707 82.4522 21.3227 82.0575 21.984C81.6735 22.6453 81.1348 23.168 80.4415 23.552C79.7588 23.9253 78.9748 24.112 78.0895 24.112ZM78.0895 22.4C78.5802 22.4 79.0175 22.2933 79.4015 22.08C79.7855 21.8667 80.0842 21.5573 80.2975 21.152C80.5215 20.7467 80.6335 20.272 80.6335 19.728C80.6335 19.1733 80.5215 18.6987 80.2975 18.304C80.0842 17.8987 79.7855 17.5893 79.4015 17.376C79.0175 17.1627 78.5855 17.056 78.1055 17.056C77.6148 17.056 77.1775 17.1627 76.7935 17.376C76.4202 17.5893 76.1215 17.8987 75.8975 18.304C75.6735 18.6987 75.5615 19.1733 75.5615 19.728C75.5615 20.272 75.6735 20.7467 75.8975 21.152C76.1215 21.5573 76.4202 21.8667 76.7935 22.08C77.1775 22.2933 77.6095 22.4 78.0895 22.4ZM89.41 15.36C90.0927 15.36 90.7007 15.4933 91.234 15.76C91.778 16.0267 92.2047 16.4373 92.514 16.992C92.8233 17.536 92.978 18.24 92.978 19.104V24H90.978V19.36C90.978 18.6027 90.7967 18.0373 90.434 17.664C90.082 17.2907 89.586 17.104 88.946 17.104C88.4767 17.104 88.0607 17.2 87.698 17.392C87.3353 17.584 87.0527 17.872 86.85 18.256C86.658 18.6293 86.562 19.104 86.562 19.68V24H84.562V15.456H86.466V17.76L86.13 17.056C86.4287 16.512 86.8607 16.096 87.426 15.808C88.002 15.5093 88.6633 15.36 89.41 15.36ZM99.5468 24.112C98.5974 24.112 97.7654 23.9253 97.0508 23.552C96.3468 23.168 95.7974 22.6453 95.4028 21.984C95.0188 21.3227 94.8268 20.5707 94.8268 19.728C94.8268 18.8747 95.0134 18.1227 95.3868 17.472C95.7708 16.8107 96.2934 16.2933 96.9548 15.92C97.6268 15.5467 98.3894 15.36 99.2428 15.36C100.075 15.36 100.816 15.5413 101.467 15.904C102.117 16.2667 102.629 16.7787 103.003 17.44C103.376 18.1013 103.563 18.88 103.563 19.776C103.563 19.8613 103.557 19.9573 103.547 20.064C103.547 20.1707 103.541 20.272 103.531 20.368H96.4108V19.04H102.475L101.691 19.456C101.701 18.9653 101.6 18.5333 101.387 18.16C101.173 17.7867 100.88 17.4933 100.507 17.28C100.144 17.0667 99.7228 16.96 99.2428 16.96C98.7521 16.96 98.3201 17.0667 97.9468 17.28C97.5841 17.4933 97.2961 17.792 97.0828 18.176C96.8801 18.5493 96.7788 18.992 96.7788 19.504V19.824C96.7788 20.336 96.8961 20.7893 97.1308 21.184C97.3654 21.5787 97.6961 21.8827 98.1228 22.096C98.5494 22.3093 99.0401 22.416 99.5948 22.416C100.075 22.416 100.507 22.3413 100.891 22.192C101.275 22.0427 101.616 21.808 101.915 21.488L102.987 22.72C102.603 23.168 102.117 23.5147 101.531 23.76C100.955 23.9947 100.293 24.112 99.5468 24.112ZM113.97 24.16C113.084 24.16 112.284 23.936 111.57 23.488C110.866 23.04 110.311 22.3893 109.906 21.536C109.5 20.672 109.298 19.6267 109.298 18.4C109.298 17.1733 109.5 16.1333 109.906 15.28C110.311 14.416 110.866 13.76 111.57 13.312C112.284 12.864 113.084 12.64 113.97 12.64C114.866 12.64 115.666 12.864 116.37 13.312C117.074 13.76 117.628 14.416 118.034 15.28C118.45 16.1333 118.658 17.1733 118.658 18.4C118.658 19.6267 118.45 20.672 118.034 21.536C117.628 22.3893 117.074 23.04 116.37 23.488C115.666 23.936 114.866 24.16 113.97 24.16ZM113.97 22.352C114.492 22.352 114.946 22.2133 115.33 21.936C115.714 21.648 116.012 21.2107 116.226 20.624C116.45 20.0373 116.562 19.296 116.562 18.4C116.562 17.4933 116.45 16.752 116.226 16.176C116.012 15.5893 115.714 15.1573 115.33 14.88C114.946 14.592 114.492 14.448 113.97 14.448C113.468 14.448 113.02 14.592 112.626 14.88C112.242 15.1573 111.938 15.5893 111.714 16.176C111.5 16.752 111.394 17.4933 111.394 18.4C111.394 19.296 111.5 20.0373 111.714 20.624C111.938 21.2107 112.242 21.648 112.626 21.936C113.02 22.2133 113.468 22.352 113.97 22.352ZM123.427 24.16C122.638 24.16 121.864 24.048 121.107 23.824C120.36 23.5893 119.731 23.2693 119.219 22.864L120.115 21.248C120.52 21.5787 121.011 21.8453 121.587 22.048C122.163 22.2507 122.766 22.352 123.395 22.352C124.142 22.352 124.723 22.2027 125.139 21.904C125.555 21.5947 125.763 21.1787 125.763 20.656C125.763 20.144 125.571 19.7387 125.187 19.44C124.803 19.1413 124.184 18.992 123.331 18.992H122.307V17.568L125.507 13.76L125.779 14.544H119.763V12.8H127.395V14.192L124.195 18L123.107 17.36H123.731C125.107 17.36 126.136 17.6693 126.819 18.288C127.512 18.896 127.859 19.68 127.859 20.64C127.859 21.2693 127.699 21.8507 127.379 22.384C127.059 22.9173 126.568 23.3493 125.907 23.68C125.256 24 124.43 24.16 123.427 24.16Z" fill="white"/>
<path d="M4.5 6C4.5 4.067 6.067 2.5 8 2.5H151.031C151.988 2.5 152.904 2.892 153.564 3.58474L165.006 15.5847C166.295 16.9369 166.295 19.0632 165.006 20.4153L153.564 32.4153C152.904 33.108 151.988 33.5 151.031 33.5H8C6.06701 33.5 4.5 31.933 4.5 30V6Z" stroke="white"/>
</svg>
