<svg width="172" height="36" viewBox="0 0 172 36" fill="none" xmlns="http://www.w3.org/2000/svg">
<path d="M0 4C0 1.79086 1.79086 0 4 0H154.204C155.346 0 156.434 0.488591 157.193 1.34254L169.638 15.3425C170.985 16.8581 170.985 19.1419 169.638 20.6575L157.193 34.6575C156.434 35.5114 155.346 36 154.204 36H4C1.79086 36 0 34.2091 0 32V4Z" fill="#0D8140"/>
<path d="M29.1194 24L29.1034 12.8H27.3914L23.0234 20.224L18.5754 12.8H16.8634V24H18.8474V16.672L22.5274 22.72H23.4554L27.1354 16.576L27.1514 24H29.1194ZM32.9606 14.048C33.7126 14.048 34.2406 13.504 34.2406 12.8C34.2406 12.144 33.6966 11.648 32.9606 11.648C32.2246 11.648 31.6806 12.176 31.6806 12.848C31.6806 13.52 32.2246 14.048 32.9606 14.048ZM31.9526 24H33.9526V15.456H31.9526V24ZM36.5776 24H38.5776V12.128H36.5776V24ZM49.2346 19.776C49.2346 17.104 47.4106 15.36 44.9146 15.36C42.3706 15.36 40.4986 17.184 40.4986 19.728C40.4986 22.272 42.3546 24.112 45.2186 24.112C46.6906 24.112 47.8906 23.632 48.6586 22.72L47.5866 21.488C46.9786 22.112 46.2266 22.416 45.2666 22.416C43.7786 22.416 42.7386 21.616 42.4986 20.368H49.2026C49.2186 20.176 49.2346 19.936 49.2346 19.776ZM44.9146 16.96C46.2266 16.96 47.1706 17.808 47.3306 19.04H42.4826C42.6746 17.792 43.6186 16.96 44.9146 16.96ZM53.7958 24.112C56.1958 24.112 57.6678 23.072 57.6678 21.472C57.6678 18.128 52.3878 19.664 52.3878 17.936C52.3878 17.376 52.9638 16.976 54.1798 16.976C54.9958 16.976 55.8118 17.136 56.6278 17.616L57.3958 16.096C56.6278 15.632 55.3318 15.36 54.1958 15.36C51.8918 15.36 50.4358 16.416 50.4358 18.032C50.4358 21.44 55.7158 19.904 55.7158 21.536C55.7158 22.128 55.1878 22.48 53.9238 22.48C52.8518 22.48 51.6998 22.128 50.9478 21.632L50.1798 23.152C50.9478 23.696 52.3718 24.112 53.7958 24.112ZM62.0301 24.112C64.4301 24.112 65.9021 23.072 65.9021 21.472C65.9021 18.128 60.6221 19.664 60.6221 17.936C60.6221 17.376 61.1981 16.976 62.4141 16.976C63.2301 16.976 64.0461 17.136 64.8621 17.616L65.6301 16.096C64.8621 15.632 63.5661 15.36 62.4301 15.36C60.1261 15.36 58.6701 16.416 58.6701 18.032C58.6701 21.44 63.9501 19.904 63.9501 21.536C63.9501 22.128 63.4221 22.48 62.1581 22.48C61.0861 22.48 59.9341 22.128 59.1821 21.632L58.4141 23.152C59.1821 23.696 60.6061 24.112 62.0301 24.112ZM72.2005 22.112C71.8965 22.352 71.4965 22.464 71.0805 22.464C70.3125 22.464 69.8965 22.016 69.8965 21.184V17.12H72.1845V15.52H69.8965V13.568H67.8965V15.52H66.4885V17.12H67.8965V21.232C67.8965 23.12 68.9685 24.112 70.8405 24.112C71.5605 24.112 72.2805 23.92 72.7605 23.536L72.2005 22.112ZM77.9645 24.112C80.6205 24.112 82.5245 22.288 82.5245 19.728C82.5245 17.168 80.6205 15.36 77.9645 15.36C75.3405 15.36 73.4205 17.168 73.4205 19.728C73.4205 22.288 75.3405 24.112 77.9645 24.112ZM77.9645 22.4C76.5245 22.4 75.4365 21.36 75.4365 19.728C75.4365 18.096 76.5245 17.056 77.9645 17.056C79.4205 17.056 80.5085 18.096 80.5085 19.728C80.5085 21.36 79.4205 22.4 77.9645 22.4ZM89.285 15.36C88.037 15.36 86.997 15.776 86.341 16.56V15.456H84.437V24H86.437V19.68C86.437 17.968 87.397 17.104 88.821 17.104C90.101 17.104 90.853 17.84 90.853 19.36V24H92.853V19.104C92.853 16.528 91.333 15.36 89.285 15.36ZM103.5 19.776C103.5 17.104 101.676 15.36 99.1803 15.36C96.6363 15.36 94.7643 17.184 94.7643 19.728C94.7643 22.272 96.6203 24.112 99.4843 24.112C100.956 24.112 102.156 23.632 102.924 22.72L101.852 21.488C101.244 22.112 100.492 22.416 99.5323 22.416C98.0443 22.416 97.0043 21.616 96.7643 20.368H103.468C103.484 20.176 103.5 19.936 103.5 19.776ZM99.1803 16.96C100.492 16.96 101.436 17.808 101.596 19.04H96.7483C96.9403 17.792 97.8843 16.96 99.1803 16.96ZM113.907 24.16C116.579 24.16 118.595 22.08 118.595 18.4C118.595 14.72 116.579 12.64 113.907 12.64C111.251 12.64 109.235 14.72 109.235 18.4C109.235 22.08 111.251 24.16 113.907 24.16ZM113.907 22.352C112.387 22.352 111.331 21.104 111.331 18.4C111.331 15.696 112.387 14.448 113.907 14.448C115.443 14.448 116.499 15.696 116.499 18.4C116.499 21.104 115.443 22.352 113.907 22.352ZM123.505 17.136H122.433L122.673 14.544H127.489V12.8H120.913L120.337 18.896H123.041C125.361 18.896 126.049 19.568 126.049 20.64C126.049 21.696 125.169 22.352 123.681 22.352C122.417 22.352 121.201 21.92 120.385 21.248L119.505 22.864C120.529 23.68 122.129 24.16 123.713 24.16C126.721 24.16 128.145 22.528 128.145 20.56C128.145 18.576 126.817 17.136 123.505 17.136Z" fill="white"/>
<path d="M145 12C141.686 12 139 14.6864 139 18C139 21.3136 141.686 24 145 24C148.314 24 151 21.3136 151 18C151 14.6864 148.314 12 145 12ZM146 21.95H144V17.15H146V21.95ZM145 16.05C144.735 16.05 144.48 15.9446 144.293 15.7571C144.105 15.5696 144 15.3152 144 15.05C144 14.7848 144.105 14.5304 144.293 14.3429C144.48 14.1554 144.735 14.05 145 14.05C145.265 14.05 145.52 14.1554 145.707 14.3429C145.895 14.5304 146 14.7848 146 15.05C146 15.3152 145.895 15.5696 145.707 15.7571C145.52 15.9446 145.265 16.05 145 16.05Z" fill="white"/>
<path d="M4.5 6C4.5 4.067 6.067 2.5 8 2.5H151.031C151.988 2.5 152.904 2.892 153.564 3.58474L165.006 15.5847C166.295 16.9369 166.295 19.0632 165.006 20.4153L153.564 32.4153C152.904 33.108 151.988 33.5 151.031 33.5H8C6.06701 33.5 4.5 31.933 4.5 30V6Z" stroke="white"/>
</svg>
