<svg width="365" height="94" viewBox="0 0 365 94" fill="none" xmlns="http://www.w3.org/2000/svg">
<path d="M345 74L345 28C345 21.3726 339.627 16 333 16L212 16" stroke="#181618" stroke-width="2" stroke-linecap="round"/>
<path d="M213 16L228 16" stroke="#181618" stroke-width="2" stroke-linecap="round"/>
<path d="M220 24L212 16L220 8" stroke="#181618" stroke-width="2" stroke-linecap="round" stroke-linejoin="round"/>
<rect opacity="0.4" width="40" height="40" rx="20" transform="matrix(1 0 0 -1 325 94)" fill="#407BFF"/>
<rect x="1" y="-1" width="38" height="38" rx="19" transform="matrix(1 0 0 -1 325 92)" stroke="#407BFF" stroke-width="2"/>
<circle r="4.5" transform="matrix(1 0 0 -1 345 74)" fill="white" stroke="#160E16" stroke-width="3"/>
<path d="M6.32 23V17.46L6.9 19.06L0.82 9H3.6L8.48 17.1H6.92L11.84 9H14.4L8.32 19.06L8.92 17.46V23H6.32ZM19.4713 23.14C18.3779 23.14 17.4046 22.9067 16.5513 22.44C15.6979 21.96 15.0246 21.3067 14.5313 20.48C14.0379 19.6533 13.7913 18.7133 13.7913 17.66C13.7913 16.5933 14.0379 15.6533 14.5313 14.84C15.0246 14.0133 15.6979 13.3667 16.5513 12.9C17.4046 12.4333 18.3779 12.2 19.4713 12.2C20.5779 12.2 21.5579 12.4333 22.4113 12.9C23.2779 13.3667 23.9513 14.0067 24.4313 14.82C24.9246 15.6333 25.1713 16.58 25.1713 17.66C25.1713 18.7133 24.9246 19.6533 24.4313 20.48C23.9513 21.3067 23.2779 21.96 22.4113 22.44C21.5579 22.9067 20.5779 23.14 19.4713 23.14ZM19.4713 21C20.0846 21 20.6313 20.8667 21.1113 20.6C21.5913 20.3333 21.9646 19.9467 22.2313 19.44C22.5113 18.9333 22.6513 18.34 22.6513 17.66C22.6513 16.9667 22.5113 16.3733 22.2313 15.88C21.9646 15.3733 21.5913 14.9867 21.1113 14.72C20.6313 14.4533 20.0913 14.32 19.4913 14.32C18.8779 14.32 18.3313 14.4533 17.8513 14.72C17.3846 14.9867 17.0113 15.3733 16.7313 15.88C16.4513 16.3733 16.3113 16.9667 16.3113 17.66C16.3113 18.34 16.4513 18.9333 16.7313 19.44C17.0113 19.9467 17.3846 20.3333 17.8513 20.6C18.3313 20.8667 18.8713 21 19.4713 21ZM32.0819 23.14C31.1752 23.14 30.3752 22.9733 29.6819 22.64C28.9885 22.2933 28.4485 21.7733 28.0619 21.08C27.6752 20.3733 27.4819 19.4867 27.4819 18.42V12.32H29.9819V18.08C29.9819 19.04 30.1952 19.76 30.6219 20.24C31.0619 20.7067 31.6819 20.94 32.4819 20.94C33.0685 20.94 33.5752 20.82 34.0019 20.58C34.4419 20.34 34.7819 19.98 35.0219 19.5C35.2752 19.02 35.4019 18.4267 35.4019 17.72V12.32H37.9019V23H35.5219V20.12L35.9419 21C35.5819 21.6933 35.0552 22.2267 34.3619 22.6C33.6685 22.96 32.9085 23.14 32.0819 23.14ZM41.1752 23V12.32H43.5552V15.26L43.2752 14.4C43.5952 13.68 44.0952 13.1333 44.7752 12.76C45.4685 12.3867 46.3285 12.2 47.3552 12.2V14.58C47.2485 14.5533 47.1485 14.54 47.0552 14.54C46.9618 14.5267 46.8685 14.52 46.7752 14.52C45.8285 14.52 45.0752 14.8 44.5152 15.36C43.9552 15.9067 43.6752 16.7267 43.6752 17.82V23H41.1752ZM55.3409 23V9H57.4809L66.2609 19.78H65.2009V9H67.7809V23H65.6409L56.8609 12.22H57.9209V23H55.3409ZM76.0923 23.14C74.999 23.14 74.0257 22.9067 73.1723 22.44C72.319 21.96 71.6457 21.3067 71.1523 20.48C70.659 19.6533 70.4123 18.7133 70.4123 17.66C70.4123 16.5933 70.659 15.6533 71.1523 14.84C71.6457 14.0133 72.319 13.3667 73.1723 12.9C74.0257 12.4333 74.999 12.2 76.0923 12.2C77.199 12.2 78.179 12.4333 79.0323 12.9C79.899 13.3667 80.5723 14.0067 81.0523 14.82C81.5457 15.6333 81.7923 16.58 81.7923 17.66C81.7923 18.7133 81.5457 19.6533 81.0523 20.48C80.5723 21.3067 79.899 21.96 79.0323 22.44C78.179 22.9067 77.199 23.14 76.0923 23.14ZM76.0923 21C76.7057 21 77.2523 20.8667 77.7323 20.6C78.2123 20.3333 78.5857 19.9467 78.8523 19.44C79.1323 18.9333 79.2723 18.34 79.2723 17.66C79.2723 16.9667 79.1323 16.3733 78.8523 15.88C78.5857 15.3733 78.2123 14.9867 77.7323 14.72C77.2523 14.4533 76.7123 14.32 76.1123 14.32C75.499 14.32 74.9523 14.4533 74.4723 14.72C74.0057 14.9867 73.6323 15.3733 73.3523 15.88C73.0723 16.3733 72.9323 16.9667 72.9323 17.66C72.9323 18.34 73.0723 18.9333 73.3523 19.44C73.6323 19.9467 74.0057 20.3333 74.4723 20.6C74.9523 20.8667 75.4923 21 76.0923 21ZM88.203 23.14C87.0296 23.14 86.123 22.84 85.483 22.24C84.843 21.6267 84.523 20.7267 84.523 19.54V9.96H87.023V19.48C87.023 19.9867 87.1496 20.38 87.403 20.66C87.6696 20.94 88.0363 21.08 88.503 21.08C89.063 21.08 89.5296 20.9333 89.903 20.64L90.603 22.42C90.3096 22.66 89.9496 22.84 89.523 22.96C89.0963 23.08 88.6563 23.14 88.203 23.14ZM82.763 14.4V12.4H89.883V14.4H82.763ZM92.6595 23V12.32H95.1595V23H92.6595ZM93.9195 10.56C93.4529 10.56 93.0662 10.4133 92.7595 10.12C92.4662 9.82667 92.3195 9.47333 92.3195 9.06C92.3195 8.63333 92.4662 8.28 92.7595 8C93.0662 7.70667 93.4529 7.56 93.9195 7.56C94.3862 7.56 94.7662 7.7 95.0595 7.98C95.3662 8.24667 95.5195 8.58667 95.5195 9C95.5195 9.44 95.3729 9.81333 95.0795 10.12C94.7862 10.4133 94.3995 10.56 93.9195 10.56ZM103.341 23.14C102.221 23.14 101.221 22.9067 100.341 22.44C99.4741 21.96 98.7941 21.3067 98.3008 20.48C97.8074 19.6533 97.5608 18.7133 97.5608 17.66C97.5608 16.5933 97.8074 15.6533 98.3008 14.84C98.7941 14.0133 99.4741 13.3667 100.341 12.9C101.221 12.4333 102.221 12.2 103.341 12.2C104.381 12.2 105.294 12.4133 106.081 12.84C106.881 13.2533 107.487 13.8667 107.901 14.68L105.981 15.8C105.661 15.2933 105.267 14.92 104.801 14.68C104.347 14.44 103.854 14.32 103.321 14.32C102.707 14.32 102.154 14.4533 101.661 14.72C101.167 14.9867 100.781 15.3733 100.501 15.88C100.221 16.3733 100.081 16.9667 100.081 17.66C100.081 18.3533 100.221 18.9533 100.501 19.46C100.781 19.9533 101.167 20.3333 101.661 20.6C102.154 20.8667 102.707 21 103.321 21C103.854 21 104.347 20.88 104.801 20.64C105.267 20.4 105.661 20.0267 105.981 19.52L107.901 20.64C107.487 21.44 106.881 22.06 106.081 22.5C105.294 22.9267 104.381 23.14 103.341 23.14ZM114.926 23.14C113.739 23.14 112.699 22.9067 111.806 22.44C110.926 21.96 110.239 21.3067 109.746 20.48C109.266 19.6533 109.026 18.7133 109.026 17.66C109.026 16.5933 109.259 15.6533 109.726 14.84C110.206 14.0133 110.859 13.3667 111.686 12.9C112.526 12.4333 113.479 12.2 114.546 12.2C115.586 12.2 116.512 12.4267 117.326 12.88C118.139 13.3333 118.779 13.9733 119.246 14.8C119.712 15.6267 119.946 16.6 119.946 17.72C119.946 17.8267 119.939 17.9467 119.926 18.08C119.926 18.2133 119.919 18.34 119.906 18.46H111.006V16.8H118.586L117.606 17.32C117.619 16.7067 117.492 16.1667 117.226 15.7C116.959 15.2333 116.592 14.8667 116.126 14.6C115.672 14.3333 115.146 14.2 114.546 14.2C113.932 14.2 113.392 14.3333 112.926 14.6C112.472 14.8667 112.112 15.24 111.846 15.72C111.592 16.1867 111.466 16.74 111.466 17.38V17.78C111.466 18.42 111.612 18.9867 111.906 19.48C112.199 19.9733 112.612 20.3533 113.146 20.62C113.679 20.8867 114.292 21.02 114.986 21.02C115.586 21.02 116.126 20.9267 116.606 20.74C117.086 20.5533 117.512 20.26 117.886 19.86L119.226 21.4C118.746 21.96 118.139 22.3933 117.406 22.7C116.686 22.9933 115.859 23.14 114.926 23.14ZM128.114 23V9H134.674C136.354 9 137.634 9.33333 138.514 10C139.394 10.6533 139.834 11.5333 139.834 12.64C139.834 13.3867 139.661 14.0267 139.314 14.56C138.968 15.08 138.501 15.4867 137.914 15.78C137.341 16.06 136.714 16.2 136.034 16.2L136.394 15.48C137.181 15.48 137.888 15.6267 138.514 15.92C139.141 16.2 139.634 16.6133 139.994 17.16C140.368 17.7067 140.554 18.3867 140.554 19.2C140.554 20.4 140.094 21.3333 139.174 22C138.254 22.6667 136.888 23 135.074 23H128.114ZM130.714 20.96H134.914C135.888 20.96 136.634 20.8 137.154 20.48C137.674 20.16 137.934 19.6467 137.934 18.94C137.934 18.2467 137.674 17.74 137.154 17.42C136.634 17.0867 135.888 16.92 134.914 16.92H130.514V14.9H134.394C135.301 14.9 135.994 14.74 136.474 14.42C136.968 14.1 137.214 13.62 137.214 12.98C137.214 12.3267 136.968 11.84 136.474 11.52C135.994 11.2 135.301 11.04 134.394 11.04H130.714V20.96ZM147.889 23.14C146.796 23.14 145.823 22.9067 144.969 22.44C144.116 21.96 143.443 21.3067 142.949 20.48C142.456 19.6533 142.209 18.7133 142.209 17.66C142.209 16.5933 142.456 15.6533 142.949 14.84C143.443 14.0133 144.116 13.3667 144.969 12.9C145.823 12.4333 146.796 12.2 147.889 12.2C148.996 12.2 149.976 12.4333 150.829 12.9C151.696 13.3667 152.369 14.0067 152.849 14.82C153.343 15.6333 153.589 16.58 153.589 17.66C153.589 18.7133 153.343 19.6533 152.849 20.48C152.369 21.3067 151.696 21.96 150.829 22.44C149.976 22.9067 148.996 23.14 147.889 23.14ZM147.889 21C148.503 21 149.049 20.8667 149.529 20.6C150.009 20.3333 150.383 19.9467 150.649 19.44C150.929 18.9333 151.069 18.34 151.069 17.66C151.069 16.9667 150.929 16.3733 150.649 15.88C150.383 15.3733 150.009 14.9867 149.529 14.72C149.049 14.4533 148.509 14.32 147.909 14.32C147.296 14.32 146.749 14.4533 146.269 14.72C145.803 14.9867 145.429 15.3733 145.149 15.88C144.869 16.3733 144.729 16.9667 144.729 17.66C144.729 18.34 144.869 18.9333 145.149 19.44C145.429 19.9467 145.803 20.3333 146.269 20.6C146.749 20.8667 147.289 21 147.889 21ZM162.423 23V20.84L162.283 20.38V16.6C162.283 15.8667 162.063 15.3 161.623 14.9C161.183 14.4867 160.516 14.28 159.623 14.28C159.023 14.28 158.43 14.3733 157.843 14.56C157.27 14.7467 156.783 15.0067 156.383 15.34L155.403 13.52C155.976 13.08 156.656 12.7533 157.443 12.54C158.243 12.3133 159.07 12.2 159.923 12.2C161.47 12.2 162.663 12.5733 163.503 13.32C164.356 14.0533 164.783 15.1933 164.783 16.74V23H162.423ZM159.063 23.14C158.263 23.14 157.563 23.0067 156.963 22.74C156.363 22.46 155.896 22.08 155.563 21.6C155.243 21.1067 155.083 20.5533 155.083 19.94C155.083 19.34 155.223 18.8 155.503 18.32C155.796 17.84 156.27 17.46 156.923 17.18C157.576 16.9 158.443 16.76 159.523 16.76H162.623V18.42H159.703C158.85 18.42 158.276 18.56 157.983 18.84C157.69 19.1067 157.543 19.44 157.543 19.84C157.543 20.2933 157.723 20.6533 158.083 20.92C158.443 21.1867 158.943 21.32 159.583 21.32C160.196 21.32 160.743 21.18 161.223 20.9C161.716 20.62 162.07 20.2067 162.283 19.66L162.703 21.16C162.463 21.7867 162.03 22.2733 161.403 22.62C160.79 22.9667 160.01 23.14 159.063 23.14ZM167.992 23V12.32H170.372V15.26L170.092 14.4C170.412 13.68 170.912 13.1333 171.592 12.76C172.285 12.3867 173.145 12.2 174.172 12.2V14.58C174.065 14.5533 173.965 14.54 173.872 14.54C173.778 14.5267 173.685 14.52 173.592 14.52C172.645 14.52 171.892 14.8 171.332 15.36C170.772 15.9067 170.492 16.7267 170.492 17.82V23H167.992ZM180.715 23.14C179.688 23.14 178.761 22.9133 177.935 22.46C177.121 21.9933 176.481 21.3533 176.015 20.54C175.548 19.7267 175.315 18.7667 175.315 17.66C175.315 16.5533 175.548 15.5933 176.015 14.78C176.481 13.9667 177.121 13.3333 177.935 12.88C178.761 12.4267 179.688 12.2 180.715 12.2C181.608 12.2 182.408 12.4 183.115 12.8C183.821 13.1867 184.381 13.78 184.795 14.58C185.208 15.38 185.415 16.4067 185.415 17.66C185.415 18.9 185.215 19.9267 184.815 20.74C184.415 21.54 183.861 22.14 183.155 22.54C182.448 22.94 181.635 23.14 180.715 23.14ZM181.015 21C181.615 21 182.148 20.8667 182.615 20.6C183.095 20.3333 183.475 19.9467 183.755 19.44C184.048 18.9333 184.195 18.34 184.195 17.66C184.195 16.9667 184.048 16.3733 183.755 15.88C183.475 15.3733 183.095 14.9867 182.615 14.72C182.148 14.4533 181.615 14.32 181.015 14.32C180.415 14.32 179.875 14.4533 179.395 14.72C178.928 14.9867 178.548 15.3733 178.255 15.88C177.975 16.3733 177.835 16.9667 177.835 17.66C177.835 18.34 177.975 18.9333 178.255 19.44C178.548 19.9467 178.928 20.3333 179.395 20.6C179.875 20.8667 180.415 21 181.015 21ZM184.255 23V20.48L184.355 17.64L184.155 14.8V8.16H186.635V23H184.255Z" fill="black"/>
</svg>
