<svg width="172" height="36" viewBox="0 0 172 36" fill="none" xmlns="http://www.w3.org/2000/svg">
<path d="M0 4C0 1.79086 1.79086 0 4 0H154.204C155.346 0 156.434 0.488591 157.193 1.34254L169.638 15.3425C170.985 16.8581 170.985 19.1419 169.638 20.6575L157.193 34.6575C156.434 35.5114 155.346 36 154.204 36H4C1.79086 36 0 34.2091 0 32V4Z" fill="#0D8140"/>
<path d="M31.5274 24V12.8H33.2394L38.1354 20.976H37.2394L42.0554 12.8H43.7674L43.7834 24H41.8154L41.7994 15.888H42.2154L38.1194 22.72H37.1914L33.0314 15.888H33.5114V24H31.5274ZM46.6167 24V15.456H48.6167V24H46.6167ZM47.6247 14.048C47.2514 14.048 46.942 13.9307 46.6967 13.696C46.462 13.4613 46.3447 13.1787 46.3447 12.848C46.3447 12.5067 46.462 12.224 46.6967 12C46.942 11.7653 47.2514 11.648 47.6247 11.648C47.998 11.648 48.302 11.76 48.5367 11.984C48.782 12.1973 48.9047 12.4693 48.9047 12.8C48.9047 13.152 48.7874 13.4507 48.5527 13.696C48.318 13.9307 48.0087 14.048 47.6247 14.048ZM51.2417 24V12.128H53.2417V24H51.2417ZM59.8827 24.112C58.9334 24.112 58.1014 23.9253 57.3867 23.552C56.6827 23.168 56.1334 22.6453 55.7387 21.984C55.3547 21.3227 55.1627 20.5707 55.1627 19.728C55.1627 18.8747 55.3494 18.1227 55.7227 17.472C56.1067 16.8107 56.6294 16.2933 57.2907 15.92C57.9627 15.5467 58.7254 15.36 59.5787 15.36C60.4107 15.36 61.152 15.5413 61.8027 15.904C62.4534 16.2667 62.9654 16.7787 63.3387 17.44C63.712 18.1013 63.8987 18.88 63.8987 19.776C63.8987 19.8613 63.8934 19.9573 63.8827 20.064C63.8827 20.1707 63.8774 20.272 63.8667 20.368H56.7467V19.04H62.8107L62.0267 19.456C62.0374 18.9653 61.936 18.5333 61.7227 18.16C61.5094 17.7867 61.216 17.4933 60.8427 17.28C60.48 17.0667 60.0587 16.96 59.5787 16.96C59.088 16.96 58.656 17.0667 58.2827 17.28C57.92 17.4933 57.632 17.792 57.4187 18.176C57.216 18.5493 57.1147 18.992 57.1147 19.504V19.824C57.1147 20.336 57.232 20.7893 57.4667 21.184C57.7014 21.5787 58.032 21.8827 58.4587 22.096C58.8854 22.3093 59.376 22.416 59.9307 22.416C60.4107 22.416 60.8427 22.3413 61.2267 22.192C61.6107 22.0427 61.952 21.808 62.2507 21.488L63.3227 22.72C62.9387 23.168 62.4534 23.5147 61.8667 23.76C61.2907 23.9947 60.6294 24.112 59.8827 24.112ZM68.4598 24.112C67.7451 24.112 67.0571 24.0213 66.3958 23.84C65.7451 23.648 65.2278 23.4187 64.8438 23.152L65.6118 21.632C65.9958 21.8773 66.4545 22.08 66.9878 22.24C67.5211 22.4 68.0545 22.48 68.5878 22.48C69.2171 22.48 69.6705 22.3947 69.9478 22.224C70.2358 22.0533 70.3798 21.824 70.3798 21.536C70.3798 21.3013 70.2838 21.1253 70.0918 21.008C69.8998 20.88 69.6491 20.784 69.3398 20.72C69.0305 20.656 68.6838 20.5973 68.2998 20.544C67.9265 20.4907 67.5478 20.4213 67.1638 20.336C66.7905 20.24 66.4491 20.1067 66.1398 19.936C65.8305 19.7547 65.5798 19.5147 65.3878 19.216C65.1958 18.9173 65.0998 18.5227 65.0998 18.032C65.0998 17.488 65.2545 17.0187 65.5638 16.624C65.8731 16.2187 66.3051 15.9093 66.8598 15.696C67.4251 15.472 68.0918 15.36 68.8598 15.36C69.4358 15.36 70.0171 15.424 70.6038 15.552C71.1905 15.68 71.6758 15.8613 72.0598 16.096L71.2918 17.616C70.8865 17.3707 70.4758 17.2053 70.0598 17.12C69.6545 17.024 69.2491 16.976 68.8438 16.976C68.2358 16.976 67.7825 17.0667 67.4838 17.248C67.1958 17.4293 67.0518 17.6587 67.0518 17.936C67.0518 18.192 67.1478 18.384 67.3398 18.512C67.5318 18.64 67.7825 18.7413 68.0918 18.816C68.4011 18.8907 68.7425 18.9547 69.1158 19.008C69.4998 19.0507 69.8785 19.12 70.2518 19.216C70.6251 19.312 70.9665 19.4453 71.2758 19.616C71.5958 19.776 71.8518 20.0053 72.0438 20.304C72.2358 20.6027 72.3318 20.992 72.3318 21.472C72.3318 22.0053 72.1718 22.4693 71.8518 22.864C71.5425 23.2587 71.0998 23.568 70.5238 23.792C69.9478 24.0053 69.2598 24.112 68.4598 24.112ZM76.6942 24.112C75.9795 24.112 75.2915 24.0213 74.6302 23.84C73.9795 23.648 73.4622 23.4187 73.0782 23.152L73.8462 21.632C74.2302 21.8773 74.6889 22.08 75.2222 22.24C75.7555 22.4 76.2889 22.48 76.8222 22.48C77.4515 22.48 77.9049 22.3947 78.1822 22.224C78.4702 22.0533 78.6142 21.824 78.6142 21.536C78.6142 21.3013 78.5182 21.1253 78.3262 21.008C78.1342 20.88 77.8835 20.784 77.5742 20.72C77.2649 20.656 76.9182 20.5973 76.5342 20.544C76.1609 20.4907 75.7822 20.4213 75.3982 20.336C75.0249 20.24 74.6835 20.1067 74.3742 19.936C74.0649 19.7547 73.8142 19.5147 73.6222 19.216C73.4302 18.9173 73.3342 18.5227 73.3342 18.032C73.3342 17.488 73.4889 17.0187 73.7982 16.624C74.1075 16.2187 74.5395 15.9093 75.0942 15.696C75.6595 15.472 76.3262 15.36 77.0942 15.36C77.6702 15.36 78.2515 15.424 78.8382 15.552C79.4249 15.68 79.9102 15.8613 80.2942 16.096L79.5262 17.616C79.1209 17.3707 78.7102 17.2053 78.2942 17.12C77.8889 17.024 77.4835 16.976 77.0782 16.976C76.4702 16.976 76.0169 17.0667 75.7182 17.248C75.4302 17.4293 75.2862 17.6587 75.2862 17.936C75.2862 18.192 75.3822 18.384 75.5742 18.512C75.7662 18.64 76.0169 18.7413 76.3262 18.816C76.6355 18.8907 76.9769 18.9547 77.3502 19.008C77.7342 19.0507 78.1129 19.12 78.4862 19.216C78.8595 19.312 79.2009 19.4453 79.5102 19.616C79.8302 19.776 80.0862 20.0053 80.2782 20.304C80.4702 20.6027 80.5662 20.992 80.5662 21.472C80.5662 22.0053 80.4062 22.4693 80.0862 22.864C79.7769 23.2587 79.3342 23.568 78.7582 23.792C78.1822 24.0053 77.4942 24.112 76.6942 24.112ZM85.5046 24.112C84.5659 24.112 83.8406 23.872 83.3286 23.392C82.8166 22.9013 82.5606 22.1813 82.5606 21.232V13.568H84.5606V21.184C84.5606 21.5893 84.6619 21.904 84.8646 22.128C85.0779 22.352 85.3712 22.464 85.7446 22.464C86.1926 22.464 86.5659 22.3467 86.8646 22.112L87.4246 23.536C87.1899 23.728 86.9019 23.872 86.5606 23.968C86.2192 24.064 85.8672 24.112 85.5046 24.112ZM81.1526 17.12V15.52H86.8486V17.12H81.1526ZM92.6286 24.112C91.7539 24.112 90.9752 23.9253 90.2926 23.552C89.6099 23.168 89.0712 22.6453 88.6766 21.984C88.2819 21.3227 88.0846 20.5707 88.0846 19.728C88.0846 18.8747 88.2819 18.1227 88.6766 17.472C89.0712 16.8107 89.6099 16.2933 90.2926 15.92C90.9752 15.5467 91.7539 15.36 92.6286 15.36C93.5139 15.36 94.2979 15.5467 94.9806 15.92C95.6739 16.2933 96.2126 16.8053 96.5966 17.456C96.9912 18.1067 97.1886 18.864 97.1886 19.728C97.1886 20.5707 96.9912 21.3227 96.5966 21.984C96.2126 22.6453 95.6739 23.168 94.9806 23.552C94.2979 23.9253 93.5139 24.112 92.6286 24.112ZM92.6286 22.4C93.1192 22.4 93.5566 22.2933 93.9406 22.08C94.3246 21.8667 94.6232 21.5573 94.8366 21.152C95.0606 20.7467 95.1726 20.272 95.1726 19.728C95.1726 19.1733 95.0606 18.6987 94.8366 18.304C94.6232 17.8987 94.3246 17.5893 93.9406 17.376C93.5566 17.1627 93.1246 17.056 92.6446 17.056C92.1539 17.056 91.7166 17.1627 91.3326 17.376C90.9592 17.5893 90.6606 17.8987 90.4366 18.304C90.2126 18.6987 90.1006 19.1733 90.1006 19.728C90.1006 20.272 90.2126 20.7467 90.4366 21.152C90.6606 21.5573 90.9592 21.8667 91.3326 22.08C91.7166 22.2933 92.1486 22.4 92.6286 22.4ZM103.949 15.36C104.632 15.36 105.24 15.4933 105.773 15.76C106.317 16.0267 106.744 16.4373 107.053 16.992C107.362 17.536 107.517 18.24 107.517 19.104V24H105.517V19.36C105.517 18.6027 105.336 18.0373 104.973 17.664C104.621 17.2907 104.125 17.104 103.485 17.104C103.016 17.104 102.6 17.2 102.237 17.392C101.874 17.584 101.592 17.872 101.389 18.256C101.197 18.6293 101.101 19.104 101.101 19.68V24H99.1011V15.456H101.005V17.76L100.669 17.056C100.968 16.512 101.4 16.096 101.965 15.808C102.541 15.5093 103.202 15.36 103.949 15.36ZM114.086 24.112C113.136 24.112 112.304 23.9253 111.59 23.552C110.886 23.168 110.336 22.6453 109.942 21.984C109.558 21.3227 109.366 20.5707 109.366 19.728C109.366 18.8747 109.552 18.1227 109.926 17.472C110.31 16.8107 110.832 16.2933 111.494 15.92C112.166 15.5467 112.928 15.36 113.782 15.36C114.614 15.36 115.355 15.5413 116.006 15.904C116.656 16.2667 117.168 16.7787 117.542 17.44C117.915 18.1013 118.102 18.88 118.102 19.776C118.102 19.8613 118.096 19.9573 118.086 20.064C118.086 20.1707 118.08 20.272 118.07 20.368H110.95V19.04H117.014L116.23 19.456C116.24 18.9653 116.139 18.5333 115.926 18.16C115.712 17.7867 115.419 17.4933 115.046 17.28C114.683 17.0667 114.262 16.96 113.782 16.96C113.291 16.96 112.859 17.0667 112.486 17.28C112.123 17.4933 111.835 17.792 111.622 18.176C111.419 18.5493 111.318 18.992 111.318 19.504V19.824C111.318 20.336 111.435 20.7893 111.67 21.184C111.904 21.5787 112.235 21.8827 112.662 22.096C113.088 22.3093 113.579 22.416 114.134 22.416C114.614 22.416 115.046 22.3413 115.43 22.192C115.814 22.0427 116.155 21.808 116.454 21.488L117.526 22.72C117.142 23.168 116.656 23.5147 116.07 23.76C115.494 23.9947 114.832 24.112 114.086 24.112ZM128.509 24.16C127.623 24.16 126.823 23.936 126.109 23.488C125.405 23.04 124.85 22.3893 124.445 21.536C124.039 20.672 123.837 19.6267 123.837 18.4C123.837 17.1733 124.039 16.1333 124.445 15.28C124.85 14.416 125.405 13.76 126.109 13.312C126.823 12.864 127.623 12.64 128.509 12.64C129.405 12.64 130.205 12.864 130.909 13.312C131.613 13.76 132.167 14.416 132.573 15.28C132.989 16.1333 133.197 17.1733 133.197 18.4C133.197 19.6267 132.989 20.672 132.573 21.536C132.167 22.3893 131.613 23.04 130.909 23.488C130.205 23.936 129.405 24.16 128.509 24.16ZM128.509 22.352C129.031 22.352 129.485 22.2133 129.869 21.936C130.253 21.648 130.551 21.2107 130.765 20.624C130.989 20.0373 131.101 19.296 131.101 18.4C131.101 17.4933 130.989 16.752 130.765 16.176C130.551 15.5893 130.253 15.1573 129.869 14.88C129.485 14.592 129.031 14.448 128.509 14.448C128.007 14.448 127.559 14.592 127.165 14.88C126.781 15.1573 126.477 15.5893 126.253 16.176C126.039 16.752 125.933 17.4933 125.933 18.4C125.933 19.296 126.039 20.0373 126.253 20.624C126.477 21.2107 126.781 21.648 127.165 21.936C127.559 22.2133 128.007 22.352 128.509 22.352ZM136.379 24V13.6L137.291 14.544H134.011V12.8H138.459V24H136.379Z" fill="white"/>
<path d="M8 2.5H151.031C151.988 2.5 152.904 2.892 153.564 3.58474L165.006 15.5847C166.295 16.9369 166.295 19.0631 165.006 20.4153L153.564 32.4153C152.904 33.108 151.988 33.5 151.031 33.5H8C6.06701 33.5 4.5 31.933 4.5 30V6C4.5 4.067 6.067 2.5 8 2.5Z" stroke="white"/>
</svg>
