<svg width="30" height="27" viewBox="0 0 30 27" fill="none" xmlns="http://www.w3.org/2000/svg">
<path d="M29.2742 5.33111C28.8087 4.28845 28.1375 3.3436 27.2983 2.54945C26.4583 1.75293 25.4681 1.11995 24.3813 0.684931C23.2543 0.232048 22.0456 0.000236091 20.8253 0.0029533C19.1133 0.0029533 17.443 0.456485 15.9914 1.31316C15.6442 1.51809 15.3143 1.74317 15.0017 1.98842C14.6892 1.74317 14.3593 1.51809 14.012 1.31316C12.5605 0.456485 10.8901 0.0029533 9.17813 0.0029533C7.94535 0.0029533 6.75077 0.231399 5.62217 0.684931C4.53177 1.12167 3.54902 1.74989 2.70517 2.54945C1.86479 3.3427 1.19346 4.28778 0.72925 5.33111C0.246556 6.41623 0 7.56854 0 8.75444C0 9.87315 0.236138 11.0389 0.704942 12.2248C1.09735 13.2158 1.65991 14.2439 2.37874 15.2819C3.51776 16.9247 5.08392 18.6381 7.02858 20.3749C10.2512 23.254 13.4425 25.2428 13.5779 25.3235L14.401 25.8341C14.7656 26.0592 15.2344 26.0592 15.599 25.8341L16.422 25.3235C16.5575 25.2395 19.7453 23.254 22.9714 20.3749C24.916 18.6381 26.4822 16.9247 27.6212 15.2819C28.3401 14.2439 28.9061 13.2158 29.295 12.2248C29.7638 11.0389 30 9.87315 30 8.75444C30.0034 7.56854 29.7569 6.41623 29.2742 5.33111V5.33111Z" fill="#699BF7"/>
</svg>
