<svg width="439" height="190" viewBox="0 0 439 190" fill="none" xmlns="http://www.w3.org/2000/svg">
<path d="M327.16 56.52C324.385 64.6156 315.574 68.9325 307.485 66.1604C299.378 63.3866 295.068 54.5799 297.84 46.4838C300.621 38.3866 309.427 34.0641 317.517 36.8418C325.625 39.6122 329.93 48.4206 327.16 56.52Z" fill="#E8E3D7"/>
<path d="M434.139 106.135L429.758 102.768L373.631 175.796L378.012 179.163L434.139 106.135Z" fill="#474F59"/>
<path d="M375.788 34.4951L371.506 38L429.847 109.261L434.128 105.756L375.788 34.4951Z" fill="#474F59"/>
<path d="M423.195 105.656C423.01 109.845 426.263 113.397 430.454 113.58C434.637 113.765 438.191 110.514 438.375 106.326C438.56 102.137 435.307 98.5854 431.121 98.404C426.933 98.2193 423.38 101.467 423.195 105.656Z" fill="#232E38"/>
<path d="M315.482 189.581H396.06V184.975C396.06 182.619 395.161 180.265 393.364 178.464C391.565 176.666 389.211 175.768 386.853 175.768H324.689C322.334 175.768 319.976 176.666 318.177 178.464C316.381 180.265 315.481 182.62 315.481 184.975V189.581H315.482Z" fill="#232E38"/>
<path d="M371.847 26.6813C375.828 28.0944 377.953 32.5612 376.585 36.6784C375.216 40.7899 370.885 42.9821 366.901 41.5729L348 34.8894L352.937 20L371.847 26.6813Z" fill="#232E38"/>
<path d="M283.735 27.0903L344.425 79.6581L352.298 37.275L324.73 13.3929L283.735 27.0903Z" fill="#232E38"/>
<path d="M325.105 13.7003L352.671 37.6514L364.574 23.9511L337.009 1.52211e-05L325.105 13.7003Z" fill="#474F59"/>
<path d="M347.422 2.09509L361.226 14.3059L357.896 18.2153L344.09 6.0037L347.422 2.09509Z" fill="#232E38"/>
</svg>
