<svg width="28" height="28" viewBox="0 0 28 28" fill="none" xmlns="http://www.w3.org/2000/svg">
<path d="M14 0C11.2311 0 8.52431 0.821085 6.22202 2.35942C3.91973 3.89776 2.12532 6.08426 1.06569 8.64243C0.00606596 11.2006 -0.271181 14.0155 0.269012 16.7313C0.809205 19.447 2.14258 21.9416 4.10051 23.8995C6.05845 25.8574 8.55301 27.1908 11.2687 27.731C13.9845 28.2712 16.7994 27.9939 19.3576 26.9343C21.9157 25.8747 24.1022 24.0803 25.6406 21.778C27.1789 19.4757 28 16.7689 28 14C28 12.1615 27.6379 10.341 26.9343 8.64243C26.2307 6.94387 25.1995 5.40052 23.8995 4.1005C22.5995 2.80048 21.0561 1.76925 19.3576 1.06569C17.659 0.362121 15.8385 0 14 0ZM14 22.4C13.7231 22.4 13.4524 22.3179 13.2222 22.1641C12.992 22.0102 12.8125 21.7916 12.7066 21.5357C12.6006 21.2799 12.5729 20.9984 12.6269 20.7269C12.6809 20.4553 12.8143 20.2058 13.0101 20.01C13.2058 19.8143 13.4553 19.6809 13.7269 19.6269C13.9985 19.5729 14.2799 19.6006 14.5358 19.7066C14.7916 19.8125 15.0102 19.992 15.1641 20.2222C15.3179 20.4524 15.4 20.7231 15.4 21C15.4 21.3713 15.2525 21.7274 14.99 21.9899C14.7274 22.2525 14.3713 22.4 14 22.4ZM15.4 15.176V16.8C15.4 17.1713 15.2525 17.5274 14.99 17.7899C14.7274 18.0525 14.3713 18.2 14 18.2C13.6287 18.2 13.2726 18.0525 13.0101 17.7899C12.7475 17.5274 12.6 17.1713 12.6 16.8V14C12.6 13.6287 12.7475 13.2726 13.0101 13.01C13.2726 12.7475 13.6287 12.6 14 12.6C14.4153 12.6 14.8214 12.4768 15.1667 12.2461C15.512 12.0153 15.7812 11.6874 15.9402 11.3036C16.0991 10.9199 16.1407 10.4977 16.0597 10.0903C15.9786 9.68295 15.7786 9.30876 15.4849 9.01507C15.1912 8.72138 14.8171 8.52138 14.4097 8.44035C14.0023 8.35932 13.5801 8.40091 13.1964 8.55985C12.8126 8.71879 12.4847 8.98796 12.2539 9.3333C12.0232 9.67864 11.9 10.0847 11.9 10.5C11.9 10.8713 11.7525 11.2274 11.49 11.4899C11.2274 11.7525 10.8713 11.9 10.5 11.9C10.1287 11.9 9.77261 11.7525 9.51005 11.4899C9.2475 11.2274 9.1 10.8713 9.1 10.5C9.09634 9.59042 9.34593 8.69778 9.82082 7.922C10.2957 7.14623 10.9772 6.51795 11.7889 6.10751C12.6006 5.69706 13.5105 5.52065 14.4168 5.59803C15.3231 5.67541 16.19 6.00352 16.9203 6.54563C17.6507 7.08773 18.2158 7.82244 18.5523 8.66749C18.8888 9.51254 18.9835 10.4346 18.8257 11.3304C18.6679 12.2262 18.2638 13.0603 17.6588 13.7395C17.0538 14.4187 16.2717 14.9161 15.4 15.176Z" fill="#313131"/>
</svg>
